<svg width="165.14527893066406px" height="141.9199981689453px" xmlns="http://www.w3.org/2000/svg" viewBox="167.42736053466797 4.040000915527344 165.14527893066406 141.9199981689453" style="background: rgba(0, 0, 0, 0);" preserveAspectRatio="xMidYMid"><defs><linearGradient id="editing-shiny-gradient" x1="0.33721592277142165" x2="0.6627840772285783" y1="0.027240712200341632" y2="0.9727592877996584" gradientUnits="objectBoundingBox"><stop offset="0.0" stop-color="#008080"></stop><stop offset="0.5" stop-color="#00a36c"></stop><stop offset="1.0" stop-color="#98fb98"></stop></linearGradient><linearGradient id="editing-shiny-gradient2" x1="0" x2="0" y1="0" y2="1"><stop offset="0.2" stop-color="#fff" stop-opacity="0.8"></stop><stop offset="0.8" stop-color="#fff" stop-opacity="0"></stop></linearGradient><filter id="editing-shiny2" x="-100%" y="-100%" width="300%" height="300%"><feMorphology operator="erode" radius="2"></feMorphology></filter><filter id="editing-shiny" x="-100%" y="-100%" width="300%" height="300%"><feFlood flood-color="#fff" result="flood"></feFlood><feConvolveMatrix in="SourceGraphic" result="conv" order="8,8" divisor="1" kernelMatrix="0 0 0 0 0 0 0 0 0 0 0 1 1 0 0 0 0 0 0 1 1 0 0 0 0 0 1 0 0 1 0 0 0 0 1 0 0 1 0 0 0 1 0 0 0 0 1 0 0 1 1 0 0 1 1 0 0 0 0 1 1 0 0 0 "></feConvolveMatrix><feOffset dx="0" dy="4" in="conv" result="offset"></feOffset><feComposite operator="in" in="flood" in2="offset" result="comp"></feComposite><feGaussianBlur in="offset" stdDeviation="3" result="shadow"></feGaussianBlur><feColorMatrix in="shadow" type="matrix" values="0.7 0 0 0 0  0 0.7 0 0 0  0 0 0.7 0 0  0 0 0 0.3 0" result="dark-shadow"></feColorMatrix><feOffset dx="0" dy="4" in="dark-shadow" result="offset-shadow"></feOffset><feOffset dx="0" dy="2" in="conv" result="offset-2"></feOffset><feComposite operator="out" in="offset" in2="offset-2" result="edge-diff"></feComposite><feGaussianBlur in="edge-diff" stdDeviation="1" result="edge-blur"></feGaussianBlur><feColorMatrix in="edge-blur" result="edge-shadow" type="matrix" values="0 0 0 0 0  0 0 0 0 0  0 0 0 0 0  0 0 0 0.5 0"></feColorMatrix><feComposite operator="in" in="edge-shadow" in2="offset" result="edge-shadow-in"></feComposite><feOffset dx="0" dy="1" in="edge-shadow-in" result="edge-shadow-final"></feOffset><feMerge result="out"><feMergeNode in="offset-shadow"></feMergeNode><feMergeNode in="comp"></feMergeNode><feMergeNode in="edge-shadow-final"></feMergeNode><feMergeNode in="SourceGraphic"></feMergeNode></feMerge></filter></defs><g filter="url(#editing-shiny)"><g transform="translate(197.41091346740723, 100.38720321655273)"><path d="M4.10 1.02L4.10 1.02L4.10 1.02Q3.65 1.47 3.52 1.41L3.52 1.41L3.52 1.41Q3.39 1.34 3.52 1.12L3.52 1.12L3.52 1.12Q3.65 0.90 3.71 0.77L3.71 0.77L3.71 0.77Q4.22 0.19 4.51-0.10L4.51-0.10L4.51-0.10Q4.80-0.38 5.18-0.70L5.18-0.70L5.18-0.70Q3.65-2.75 2.94-5.09L2.94-5.09L2.94-5.09Q2.24-7.42 2.11-9.92L2.11-9.92L2.11-9.92Q1.98-12.42 2.34-14.98L2.34-14.98L2.34-14.98Q2.69-17.54 3.26-19.97L3.26-19.97L3.26-19.97Q4.42-24.77 5.92-29.34L5.92-29.34L5.92-29.34Q7.42-33.92 8.45-38.14L8.45-38.14L8.45-38.14Q6.40-37.76 4.77-37.12L4.77-37.12L4.77-37.12Q3.14-36.48 2.62-35.71L2.62-35.71L2.62-35.71Q2.43-35.39 2.27-35.46L2.27-35.46L2.27-35.46Q2.11-35.52 2.37-36.03L2.37-36.03L2.37-36.03Q2.88-37.12 4.22-37.98L4.22-37.98L4.22-37.98Q5.57-38.85 7.30-39.42L7.30-39.42L7.30-39.42Q9.02-40 11.04-40.32L11.04-40.32L11.04-40.32Q13.06-40.64 14.91-40.58L14.91-40.58L14.91-40.58Q19.07-40.45 21.86-38.98L21.86-38.98L21.86-38.98Q24.64-37.50 24.70-34.62L24.70-34.62L24.70-34.62Q24.70-32.83 23.46-31.04L23.46-31.04L23.46-31.04Q22.21-29.25 20.45-27.68L20.45-27.68L20.45-27.68Q18.69-26.11 16.70-24.86L16.70-24.86L16.70-24.86Q14.72-23.62 13.31-22.91L13.31-22.91L13.06-22.02L13.06-22.02Q14.02-22.85 15.62-23.36L15.62-23.36L15.62-23.36Q17.22-23.87 18.98-23.87L18.98-23.87L18.98-23.87Q20.74-23.87 22.43-23.26L22.43-23.26L22.43-23.26Q24.13-22.66 25.41-21.31L25.41-21.31L25.41-21.31Q27.14-19.39 27.62-16.93L27.62-16.93L27.62-16.93Q28.10-14.46 27.33-12.10L27.33-12.10L27.33-12.10Q26.62-9.73 24.96-8.22L24.96-8.22L24.96-8.22Q23.30-6.72 21.57-5.95L21.57-5.95L21.57-5.95Q21.38-5.82 20.86-5.66L20.86-5.66L20.86-5.66Q20.35-5.50 20.22-5.70L20.22-5.70L20.22-5.70Q20.16-5.82 20.54-6.18L20.54-6.18L20.54-6.18Q20.93-6.53 21.12-6.66L21.12-6.66L21.12-6.66Q22.85-7.81 24.06-9.79L24.06-9.79L24.06-9.79Q25.28-11.78 25.57-13.92L25.57-13.92L25.57-13.92Q25.86-16.06 25.09-18.05L25.09-18.05L25.09-18.05Q24.32-20.03 22.08-21.12L22.08-21.12L22.08-21.12Q21.18-21.57 19.71-21.79L19.71-21.79L19.71-21.79Q18.24-22.02 16.77-21.92L16.77-21.92L16.77-21.92Q15.30-21.82 14.05-21.25L14.05-21.25L14.05-21.25Q12.80-20.67 12.29-19.46L12.29-19.46L12.29-19.46Q13.44-20.16 14.91-20.54L14.91-20.54L14.91-20.54Q16.38-20.93 17.89-20.90L17.89-20.90L17.89-20.90Q19.39-20.86 20.74-20.32L20.74-20.32L20.74-20.32Q22.08-19.78 22.98-18.69L22.98-18.69L22.98-18.69Q24.06-17.34 24.22-15.87L24.22-15.87L24.22-15.87Q24.38-14.40 23.90-12.99L23.90-12.99L23.90-12.99Q23.42-11.58 22.37-10.37L22.37-10.37L22.37-10.37Q21.31-9.15 19.97-8.32L19.97-8.32L19.97-8.32Q18.18-7.23 16-6.18L16-6.18L16-6.18Q13.82-5.12 11.65-4L11.65-4L11.65-4Q9.47-2.88 7.49-1.63L7.49-1.63L7.49-1.63Q5.50-0.38 4.10 1.02ZM11.78-17.28L11.78-17.28L11.78-17.28Q10.62-14.40 9.89-11.49L9.89-11.49L9.89-11.49Q9.15-8.58 8.26-6.14L8.26-6.14L8.26-6.14Q7.94-5.31 7.81-5.38L7.81-5.38L7.81-5.38Q7.62-5.44 7.62-5.73L7.62-5.73L7.62-5.73Q7.62-6.02 7.62-6.34L7.62-6.34L7.62-6.34Q7.81-11.20 9.02-15.97L9.02-15.97L9.02-15.97Q10.24-20.74 11.65-25.60L11.65-25.60L11.65-25.60Q12.54-28.61 13.34-31.78L13.34-31.78L13.34-31.78Q14.14-34.94 14.27-38.59L14.27-38.59L13.18-38.59L13.18-38.59Q13.25-36.86 13.09-35.17L13.09-35.17L13.09-35.17Q12.93-33.47 12.61-32.26L12.61-32.26L12.61-32.26Q11.71-28.80 10.43-25.09L10.43-25.09L10.43-25.09Q9.15-21.38 7.74-18.05L7.74-18.05L7.74-18.05Q7.68-17.92 7.46-17.44L7.46-17.44L7.46-17.44Q7.23-16.96 7.04-17.02L7.04-17.02L7.04-17.02Q6.91-17.09 6.88-17.60L6.88-17.60L6.88-17.60Q6.85-18.11 6.91-18.30L6.91-18.30L6.91-18.30Q6.98-19.07 7.20-20.22L7.20-20.22L7.20-20.22Q7.42-21.38 7.65-22.59L7.65-22.59L7.65-22.59Q7.87-23.81 8.16-24.96L8.16-24.96L8.16-24.96Q8.45-26.11 8.70-26.94L8.70-26.94L8.70-26.94Q8.77-27.26 9.06-28.42L9.06-28.42L9.06-28.42Q9.34-29.57 9.66-31.20L9.66-31.20L9.66-31.20Q9.98-32.83 10.34-34.72L10.34-34.72L10.34-34.72Q10.69-36.61 10.94-38.40L10.94-38.40L10.94-38.40Q10.43-38.40 10.18-38.34L10.18-38.34L10.18-38.34Q9.86-35.97 9.25-33.54L9.25-33.54L9.25-33.54Q8.64-31.10 7.87-28.61L7.87-28.61L7.87-28.61Q7.10-26.11 6.34-23.65L6.34-23.65L6.34-23.65Q5.57-21.18 4.99-18.69L4.99-18.69L4.99-18.69Q4.48-16.58 4.22-14.27L4.22-14.27L4.22-14.27Q3.97-11.97 3.97-9.70L3.97-9.70L3.97-9.70Q3.97-7.42 4.35-5.25L4.35-5.25L4.35-5.25Q4.74-3.07 5.57-1.09L5.57-1.09L6.14-1.66L6.14-1.66Q5.95-2.11 5.76-2.75L5.76-2.75L5.76-2.75Q5.57-3.39 5.44-4.29L5.44-4.29L5.44-4.29Q5.31-4.99 5.28-6.08L5.28-6.08L5.28-6.08Q5.25-7.17 5.31-8.19L5.31-8.19L5.31-8.19Q5.38-9.22 5.50-9.92L5.50-9.92L5.50-9.92Q5.63-10.62 5.89-10.62L5.89-10.62L5.89-10.62Q5.95-10.62 6.05-10.30L6.05-10.30L6.05-10.30Q6.14-9.98 6.21-9.54L6.21-9.54L6.21-9.54Q6.27-9.09 6.34-8.70L6.34-8.70L6.34-8.70Q6.40-8.32 6.40-8.13L6.40-8.13L6.40-8.13Q6.46-7.55 6.53-6.85L6.53-6.85L6.53-6.85Q6.59-6.14 6.69-5.38L6.69-5.38L6.69-5.38Q6.78-4.61 6.88-3.87L6.88-3.87L6.88-3.87Q6.98-3.14 7.17-2.62L7.17-2.62L7.17-2.62Q8.64-3.97 10.30-5.02L10.30-5.02L10.30-5.02Q11.97-6.08 13.60-6.98L13.60-6.98L13.60-6.98Q15.23-7.87 16.77-8.70L16.77-8.70L16.77-8.70Q18.30-9.54 19.46-10.37L19.46-10.37L19.46-10.37Q21.44-11.71 22.02-13.79L22.02-13.79L22.02-13.79Q22.59-15.87 21.31-17.54L21.31-17.54L21.31-17.54Q20.48-18.62 19.04-19.07L19.04-19.07L19.04-19.07Q17.60-19.52 16.10-19.42L16.10-19.42L16.10-19.42Q14.59-19.33 13.38-18.75L13.38-18.75L13.38-18.75Q12.16-18.18 11.78-17.28ZM21.95-27.07L21.95-27.07L21.95-27.07Q22.08-27.01 21.66-26.40L21.66-26.40L21.66-26.40Q21.25-25.79 21.12-25.54L21.12-25.54L21.12-25.54Q23.30-25.86 24.99-27.07L24.99-27.07L24.99-27.07Q26.69-28.29 27.71-29.98L27.71-29.98L27.71-29.98Q28.74-31.68 28.99-33.70L28.99-33.70L28.99-33.70Q29.25-35.71 28.61-37.76L28.61-37.76L28.61-37.76Q27.97-39.81 26.50-41.22L26.50-41.22L26.50-41.22Q25.02-42.62 23.10-43.52L23.10-43.52L23.10-43.52Q21.18-44.42 18.94-44.80L18.94-44.80L18.94-44.80Q16.70-45.18 14.46-45.15L14.46-45.15L14.46-45.15Q12.22-45.12 10.18-44.74L10.18-44.74L10.18-44.74Q8.13-44.35 6.59-43.65L6.59-43.65L6.59-43.65Q6.27-43.52 6.24-43.52L6.24-43.52L6.24-43.52Q6.21-43.52 6.14-43.58L6.14-43.58L6.14-43.58Q6.08-43.78 6.46-44.03L6.46-44.03L6.46-44.03Q8.06-45.44 10.53-46.14L10.53-46.14L10.53-46.14Q12.99-46.85 15.71-46.85L15.71-46.85L15.71-46.85Q18.43-46.85 21.18-46.11L21.18-46.11L21.18-46.11Q23.94-45.38 26.14-43.87L26.14-43.87L26.14-43.87Q28.35-42.37 29.79-40.03L29.79-40.03L29.79-40.03Q31.23-37.70 31.36-34.56L31.36-34.56L31.36-34.56Q31.42-32.64 30.85-31.07L30.85-31.07L30.85-31.07Q30.27-29.50 29.31-28.29L29.31-28.29L29.31-28.29Q28.35-27.07 27.10-26.21L27.10-26.21L27.10-26.21Q25.86-25.34 24.51-24.77L24.51-24.77L24.51-24.77Q26.62-23.81 28.16-21.79L28.16-21.79L28.16-21.79Q29.70-19.78 30.34-17.79L30.34-17.79L30.34-17.79Q31.10-15.17 30.69-12.80L30.69-12.80L30.69-12.80Q30.27-10.43 29.28-8.51L29.28-8.51L29.28-8.51Q28.29-6.59 27.04-5.22L27.04-5.22L27.04-5.22Q25.79-3.84 24.90-3.26L24.90-3.26L24.90-3.26Q23.04-2.05 21.12-1.38L21.12-1.38L21.12-1.38Q19.20-0.70 17.34-0.35L17.34-0.35L17.34-0.35Q15.49 0 13.79 0.13L13.79 0.13L13.79 0.13Q12.10 0.26 10.75 0.32L10.75 0.32L10.75 0.32Q9.73 0.45 9.73 0.26L9.73 0.26L9.73 0.26Q9.66 0.13 10.08 0.03L10.08 0.03L10.08 0.03Q10.50-0.06 10.82-0.13L10.82-0.13L10.82-0.13Q13.31-0.58 15.74-1.34L15.74-1.34L15.74-1.34Q18.18-2.11 20.67-3.39L20.67-3.39L20.67-3.39Q21.89-4.03 23.20-4.90L23.20-4.90L23.20-4.90Q24.51-5.76 25.63-6.94L25.63-6.94L25.63-6.94Q26.75-8.13 27.55-9.60L27.55-9.60L27.55-9.60Q28.35-11.07 28.61-12.86L28.61-12.86L28.61-12.86Q28.93-15.10 28.51-17.31L28.51-17.31L28.51-17.31Q28.10-19.52 26.37-21.57L26.37-21.57L26.37-21.57Q24.70-23.55 22.88-24.26L22.88-24.26L22.88-24.26Q21.06-24.96 18.94-24.83L18.94-24.83L18.94-24.83Q18.43-24.83 18.43-24.90L18.43-24.90L18.43-24.90Q18.43-25.02 19.14-25.34L19.14-25.34L19.14-25.34Q19.84-25.66 20.03-25.79L20.03-25.79L20.03-25.79Q20.61-26.18 21.25-26.69L21.25-26.69L21.25-26.69Q21.89-27.20 21.95-27.07ZM22.72-34.37L22.72-34.37L22.72-34.37Q22.72-36.42 20.54-37.34L20.54-37.34L20.54-37.34Q18.37-38.27 14.53-38.59L14.53-38.59L14.53-38.59Q14.98-36.61 15.10-34.94L15.10-34.94L15.10-34.94Q15.23-33.28 15.07-31.65L15.07-31.65L15.07-31.65Q14.91-30.02 14.50-28.26L14.50-28.26L14.50-28.26Q14.08-26.50 13.57-24.38L13.57-24.38L13.57-24.38Q14.91-25.02 16.51-26.34L16.51-26.34L16.51-26.34Q18.11-27.65 19.49-29.09L19.49-29.09L19.49-29.09Q20.86-30.53 21.79-31.97L21.79-31.97L21.79-31.97Q22.72-33.41 22.72-34.37ZM13.89-44.16L13.89-44.16L13.89-44.16Q16.06-44.29 18.85-43.68L18.85-43.68L18.85-43.68Q21.63-43.07 23.87-41.73L23.87-41.73L23.87-41.73Q25.02-41.02 25.79-40L25.79-40L25.79-40Q26.56-38.98 26.98-37.86L26.98-37.86L26.98-37.86Q27.39-36.74 27.46-35.58L27.46-35.58L27.46-35.58Q27.52-34.43 27.20-33.47L27.20-33.47L27.20-33.47Q27.14-33.34 27.07-33.12L27.07-33.12L27.07-33.12Q27.01-32.90 26.88-32.67L26.88-32.67L26.88-32.67Q26.75-32.45 26.62-32.29L26.62-32.29L26.62-32.29Q26.50-32.13 26.37-32.19L26.37-32.19L26.37-32.19Q26.18-32.19 26.21-32.64L26.21-32.64L26.21-32.64Q26.24-33.09 26.37-33.60L26.37-33.60L26.37-33.60Q26.69-35.39 26.08-36.74L26.08-36.74L26.08-36.74Q25.47-38.08 24.26-39.01L24.26-39.01L24.26-39.01Q23.04-39.94 21.44-40.51L21.44-40.51L21.44-40.51Q19.84-41.09 18.14-41.41L18.14-41.41L18.14-41.41Q16.45-41.73 14.85-41.76L14.85-41.76L14.85-41.76Q13.25-41.79 12.10-41.66L12.10-41.66L12.10-41.66Q10.50-41.47 8.93-41.06L8.93-41.06L8.93-41.06Q7.36-40.64 6.02-40.13L6.02-40.13L6.02-40.13Q4.67-39.62 3.71-39.04L3.71-39.04L3.71-39.04Q2.75-38.46 2.37-37.95L2.37-37.95L2.37-37.95Q1.98-37.44 1.92-37.63L1.92-37.63L1.92-37.63Q1.92-37.82 2.05-38.21L2.05-38.21L2.05-38.21Q2.50-39.49 3.71-40.54L3.71-40.54L3.71-40.54Q4.93-41.60 6.53-42.37L6.53-42.37L6.53-42.37Q8.13-43.14 10.05-43.58L10.05-43.58L10.05-43.58Q11.97-44.03 13.89-44.16ZM10.75-1.02L10.75-1.02L10.75-1.02Q8.64-0.19 7.39 0.45L7.39 0.45L7.39 0.45Q6.14 1.09 4.93 2.11L4.93 2.11L4.93 2.11Q4.80 2.18 4.67 2.37L4.67 2.37L4.67 2.37Q4.54 2.56 4.42 2.50L4.42 2.50L4.42 2.50Q4.29 2.43 4.42 2.14L4.42 2.14L4.42 2.14Q4.54 1.86 4.67 1.73L4.67 1.73L4.67 1.73Q5.31 0.83 6.34-0.03L6.34-0.03L6.34-0.03Q7.36-0.90 9.22-1.66L9.22-1.66L9.22-1.66Q9.86-1.92 10.66-2.21L10.66-2.21L10.66-2.21Q11.46-2.50 12.19-2.69L12.19-2.69L12.19-2.69Q12.93-2.88 13.41-2.94L13.41-2.94L13.41-2.94Q13.89-3.01 14.02-2.82L14.02-2.82L14.02-2.82Q14.08-2.69 13.63-2.43L13.63-2.43L13.63-2.43Q13.18-2.18 12.61-1.89L12.61-1.89L12.61-1.89Q12.03-1.60 11.49-1.34L11.49-1.34L11.49-1.34Q10.94-1.09 10.75-1.02ZM49.60-32.19L49.60-32.19L49.60-32.19Q50.18-28.80 50.30-24.77L50.30-24.77L50.30-24.77Q50.43-20.74 50.56-17.34L50.56-17.34L50.56-17.34Q50.56-17.15 50.53-16.64L50.53-16.64L50.53-16.64Q50.50-16.13 50.24-16.06L50.24-16.06L50.24-16.06Q50.11-16.06 49.92-16.61L49.92-16.61L49.92-16.61Q49.73-17.15 49.66-17.34L49.66-17.34L49.66-17.34Q49.41-18.11 49.18-19.14L49.18-19.14L49.18-19.14Q48.96-20.16 48.77-21.22L48.77-21.22L48.77-21.22Q48.58-22.27 48.45-23.33L48.45-23.33L48.45-23.33Q48.32-24.38 48.26-25.28L48.26-25.28L48.26-25.28Q48.26-25.47 48.16-26.37L48.16-26.37L48.16-26.37Q48.06-27.26 47.87-28.45L47.87-28.45L47.87-28.45Q47.68-29.63 47.42-31.01L47.42-31.01L47.42-31.01Q47.17-32.38 46.85-33.66L46.85-33.66L46.85-33.66Q46.85-30.98 46.75-28.38L46.75-28.38L46.75-28.38Q46.66-25.79 46.85-23.17L46.85-23.17L46.85-23.17Q46.98-21.50 47.23-19.94L47.23-19.94L47.23-19.94Q47.49-18.37 47.81-16.77L47.81-16.77L47.81-16.77Q48.26-14.53 49.15-12.29L49.15-12.29L49.15-12.29Q50.05-10.05 51.30-8.06L51.30-8.06L51.30-8.06Q52.54-6.08 54.18-4.45L54.18-4.45L54.18-4.45Q55.81-2.82 57.73-1.86L57.73-1.86L57.73-1.86Q58.05-1.73 58.02-1.57L58.02-1.57L58.02-1.57Q57.98-1.41 57.73-1.47L57.73-1.47L57.73-1.47Q55.10-2.05 53.12-3.62L53.12-3.62L53.12-3.62Q51.14-5.18 49.63-7.36L49.63-7.36L49.63-7.36Q48.13-9.54 47.17-12.10L47.17-12.10L47.17-12.10Q46.21-14.66 45.70-17.22L45.70-17.22L45.70-17.22Q45.50-18.30 45.31-19.39L45.31-19.39L45.31-19.39Q45.12-20.48 44.99-21.57L44.99-21.57L44.99-21.57Q44.03-18.50 42.91-15.55L42.91-15.55L42.91-15.55Q41.79-12.61 40.77-9.92L40.77-9.92L40.77-9.92Q39.74-7.23 38.98-4.74L38.98-4.74L38.98-4.74Q38.21-2.24 37.82 0L37.82 0L37.82 0Q37.76 0.06 37.76 0.13L37.76 0.13L37.76 0.13Q37.63 0.26 37.63 0.26L37.63 0.26L37.63 0.26Q37.44 0.26 37.44 0L37.44 0L37.44 0Q36.99-2.94 37.66-6.05L37.66-6.05L37.66-6.05Q38.34-9.15 39.52-12.42L39.52-12.42L39.52-12.42Q40.70-15.68 42.05-19.10L42.05-19.10L42.05-19.10Q43.39-22.53 44.29-26.05L44.29-26.05L44.29-26.05Q44.86-28.22 45.12-30.69L45.12-30.69L45.12-30.69Q45.38-33.15 45.25-35.55L45.25-35.55L45.25-35.55Q45.12-37.95 44.45-40.19L44.45-40.19L44.45-40.19Q43.78-42.43 42.56-44.29L42.56-44.29L42.56-44.29Q42.24-44.67 42.37-44.80L42.37-44.80L42.37-44.80Q42.50-44.93 42.75-44.80L42.75-44.80L42.75-44.80Q43.01-44.67 43.20-44.48L43.20-44.48L43.20-44.48Q44.48-43.20 45.47-42.02L45.47-42.02L45.47-42.02Q46.46-40.83 47.23-39.42L47.23-39.42L47.23-39.42Q48-38.02 48.58-36.29L48.58-36.29L48.58-36.29Q49.15-34.56 49.60-32.19ZM57.34-17.28L57.34-17.28L57.34-17.28Q57.73-19.14 58.05-20.54L58.05-20.54L58.05-20.54Q58.37-21.95 58.78-23.23L58.78-23.23L58.78-23.23Q59.20-24.51 59.74-25.82L59.74-25.82L59.74-25.82Q60.29-27.14 61.12-28.74L61.12-28.74L61.12-28.74Q61.25-28.93 61.54-29.41L61.54-29.41L61.54-29.41Q61.82-29.89 62.02-29.82L62.02-29.82L62.02-29.82Q62.14-29.82 62.08-29.25L62.08-29.25L62.08-29.25Q62.02-28.67 61.95-28.48L61.95-28.48L61.95-28.48Q61.76-27.65 61.47-26.56L61.47-26.56L61.47-26.56Q61.18-25.47 60.86-24.29L60.86-24.29L60.86-24.29Q60.54-23.10 60.22-21.95L60.22-21.95L60.22-21.95Q59.90-20.80 59.71-19.97L59.71-19.97L59.71-19.97Q59.46-18.88 59.17-17.31L59.17-17.31L59.17-17.31Q58.88-15.74 58.59-13.82L58.59-13.82L58.59-13.82Q58.30-11.90 58.14-9.73L58.14-9.73L58.14-9.73Q57.98-7.55 58.05-5.25L58.05-5.25L58.05-5.25Q57.47-5.57 56.86-6.05L56.86-6.05L56.86-6.05Q56.26-6.53 55.68-7.42L55.68-7.42L55.68-7.42Q54.34-9.34 53.60-11.49L53.60-11.49L53.60-11.49Q52.86-13.63 52.42-15.94L52.42-15.94L52.42-15.94Q51.97-18.24 51.78-20.64L51.78-20.64L51.78-20.64Q51.58-23.04 51.33-25.34L51.33-25.34L51.33-25.34Q51.01-28.35 50.75-31.42L50.75-31.42L50.75-31.42Q50.50-34.50 49.41-37.76L49.41-37.76L49.41-37.76Q49.28-38.08 49.25-38.11L49.25-38.11L49.25-38.11Q49.22-38.14 49.34-38.21L49.34-38.21L49.34-38.21Q49.54-38.21 49.73-37.89L49.73-37.89L49.73-37.89Q50.56-37.06 51.17-35.49L51.17-35.49L51.17-35.49Q51.78-33.92 52.26-32L52.26-32L52.26-32Q52.74-30.08 53.09-27.94L53.09-27.94L53.09-27.94Q53.44-25.79 53.70-23.78L53.70-23.78L53.70-23.78Q53.95-21.76 54.18-20.06L54.18-20.06L54.18-20.06Q54.40-18.37 54.59-17.28L54.59-17.28L54.59-17.28Q55.04-20.99 55.55-23.90L55.55-23.90L55.55-23.90Q56.06-26.82 56.64-28.61L56.64-28.61L56.64-28.61Q57.15-30.21 57.86-31.94L57.86-31.94L57.86-31.94Q58.56-33.66 59.39-35.36L59.39-35.36L59.39-35.36Q60.22-37.06 61.09-38.59L61.09-38.59L61.09-38.59Q61.95-40.13 62.72-41.28L62.72-41.28L62.72-41.28Q62.91-41.60 63.10-41.86L63.10-41.86L63.10-41.86Q63.30-42.11 63.42-41.98L63.42-41.98L63.42-41.98Q63.55-41.86 63.46-41.57L63.46-41.57L63.46-41.57Q63.36-41.28 63.23-40.96L63.23-40.96L63.23-40.96Q62.40-38.46 61.66-36.48L61.66-36.48L61.66-36.48Q60.93-34.50 60.19-32.58L60.19-32.58L60.19-32.58Q59.46-30.66 58.82-28.58L58.82-28.58L58.82-28.58Q58.18-26.50 57.54-23.94L57.54-23.94L57.54-23.94Q57.15-22.27 56.64-20.42L56.64-20.42L56.64-20.42Q56.13-18.56 55.84-16.61L55.84-16.61L55.84-16.61Q55.55-14.66 55.65-12.64L55.65-12.64L55.65-12.64Q55.74-10.62 56.58-8.70L56.58-8.70L56.58-8.70Q56.51-9.79 56.58-11.17L56.58-11.17L56.58-11.17Q56.64-12.54 56.80-13.79L56.80-13.79L56.80-13.79Q56.96-15.04 57.12-16L57.12-16L57.12-16Q57.28-16.96 57.34-17.28ZM56.06-5.50L56.06-5.50L56.06-5.50Q56.77-4.74 57.54-4.13L57.54-4.13L57.54-4.13Q58.30-3.52 59.20-3.01L59.20-3.01L59.20-3.01Q58.69-5.89 59.01-8.99L59.01-8.99L59.01-8.99Q59.33-12.10 60.10-15.30L60.10-15.30L60.10-15.30Q60.86-18.50 61.89-21.70L61.89-21.70L61.89-21.70Q62.91-24.90 63.87-27.97L63.87-27.97L63.87-27.97Q65.28-32.45 66.14-37.28L66.14-37.28L66.14-37.28Q67.01-42.11 67.14-46.91L67.14-46.91L67.14-46.91Q67.14-47.42 67.20-47.42L67.20-47.42L67.20-47.42Q67.39-47.42 67.39-47.10L67.39-47.10L67.39-47.10Q67.97-44.35 68.03-41.76L68.03-41.76L68.03-41.76Q68.10-39.17 67.78-36.64L67.78-36.64L67.78-36.64Q67.46-34.11 66.88-31.62L66.88-31.62L66.88-31.62Q66.30-29.12 65.54-26.56L65.54-26.56L65.54-26.56Q64.58-23.10 63.55-19.62L63.55-19.62L63.55-19.62Q62.53-16.13 61.73-12.77L61.73-12.77L61.73-12.77Q60.93-9.41 60.54-6.18L60.54-6.18L60.54-6.18Q60.16-2.94 60.42-0.06L60.42-0.06L60.42-0.06Q60.42 0.19 60.29 0.19L60.29 0.19L60.29 0.19Q60.16 0.19 60.13 0.10L60.13 0.10L60.13 0.10Q60.10 0 60.03-0.06L60.03-0.06L60.03-0.06Q59.78-0.70 59.74-0.77L59.74-0.77L59.74-0.77Q59.71-0.83 59.52-1.47L59.52-1.47L59.52-1.47Q59.39-1.98 59.14-2.18L59.14-2.18L59.14-2.18Q58.88-2.37 58.75-2.43L58.75-2.43L58.75-2.43Q57.66-2.82 56.90-3.14L56.90-3.14L56.90-3.14Q56.13-3.46 54.85-4.74L54.85-4.74L54.85-4.74Q54.34-5.25 53.76-6.14L53.76-6.14L53.76-6.14Q53.18-7.04 52.74-7.90L52.74-7.90L52.74-7.90Q52.29-8.77 52.10-9.44L52.10-9.44L52.10-9.44Q51.90-10.11 52.10-10.18L52.10-10.18L52.10-10.18Q52.16-10.18 52.42-9.95L52.42-9.95L52.42-9.95Q52.67-9.73 52.93-9.44L52.93-9.44L52.93-9.44Q53.18-9.15 53.41-8.83L53.41-8.83L53.41-8.83Q53.63-8.51 53.70-8.45L53.70-8.45L53.70-8.45Q54.85-6.72 56.06-5.50ZM37.31-26.82L37.31-26.82L37.31-26.82Q38.08-29.76 39.14-32.83L39.14-32.83L39.14-32.83Q40.19-35.90 40.90-38.34L40.90-38.34L40.90-38.34Q41.02-38.66 41.12-38.91L41.12-38.91L41.12-38.91Q41.22-39.17 41.34-39.10L41.34-39.10L41.34-39.10Q41.47-39.10 41.47-38.78L41.47-38.78L41.47-38.78Q41.47-38.46 41.47-38.14L41.47-38.14L41.47-38.14Q41.54-33.47 40.26-28.80L40.26-28.80L40.26-28.80Q38.98-24.13 37.38-19.58L37.38-19.58L37.38-19.58Q36.35-16.70 35.33-13.73L35.33-13.73L35.33-13.73Q34.30-10.75 33.79-7.30L33.79-7.30L33.79-7.30Q33.73-6.98 33.73-6.94L33.73-6.94L33.73-6.94Q33.73-6.91 33.60-6.91L33.60-6.91L33.60-6.91Q33.54-6.91 33.41-7.36L33.41-7.36L33.41-7.36Q33.02-9.09 33.44-11.71L33.44-11.71L33.44-11.71Q33.86-14.34 34.56-17.18L34.56-17.18L34.56-17.18Q35.26-20.03 36.10-22.62L36.10-22.62L36.10-22.62Q36.93-25.22 37.31-26.82ZM36.10-13.18L36.10-13.18L36.10-13.18Q37.25-16.45 38.69-20L38.69-20L38.69-20Q40.13-23.55 41.60-26.75L41.60-26.75L41.60-26.75Q41.66-26.88 41.92-27.33L41.92-27.33L41.92-27.33Q42.18-27.78 42.30-27.78L42.30-27.78L42.30-27.78Q42.43-27.71 42.46-27.20L42.46-27.20L42.46-27.20Q42.50-26.69 42.37-26.50L42.37-26.50L42.37-26.50Q42.24-25.73 42.02-24.61L42.02-24.61L42.02-24.61Q41.79-23.49 41.47-22.30L41.47-22.30L41.47-22.30Q41.15-21.12 40.83-20.03L40.83-20.03L40.83-20.03Q40.51-18.94 40.26-18.18L40.26-18.18L40.26-18.18Q40.06-17.60 39.39-15.36L39.39-15.36L39.39-15.36Q38.72-13.12 38.02-10.40L38.02-10.40L38.02-10.40Q37.31-7.68 36.77-5.12L36.77-5.12L36.77-5.12Q36.22-2.56 36.35-1.34L36.35-1.34L36.35-1.34Q36.35-0.77 36.16-0.77L36.16-0.77L36.16-0.77Q36.10-0.77 36-0.99L36-0.99L36-0.99Q35.90-1.22 35.78-1.34L35.78-1.34L35.78-1.34Q35.26-2.43 35.10-3.97L35.10-3.97L35.10-3.97Q34.94-5.50 35.04-7.17L35.04-7.17L35.04-7.17Q35.14-8.83 35.42-10.40L35.42-10.40L35.42-10.40Q35.71-11.97 36.10-13.18ZM64.64-42.82L64.64-42.82L64.64-42.82Q64.90-44.10 65.02-45.28L65.02-45.28L65.02-45.28Q65.15-46.46 65.28-47.81L65.28-47.81L65.28-47.81Q65.28-47.94 65.34-48.10L65.34-48.10L65.34-48.10Q65.41-48.26 65.54-48.26L65.54-48.26L65.54-48.26Q65.60-48.26 65.79-47.94L65.79-47.94L65.79-47.94Q65.86-47.81 65.86-47.68L65.86-47.68L65.86-47.68Q66.05-47.04 66.14-46.53L66.14-46.53L66.14-46.53Q66.24-46.02 66.27-45.44L66.27-45.44L66.27-45.44Q66.30-44.86 66.27-44.13L66.27-44.13L66.27-44.13Q66.24-43.39 66.05-42.43L66.05-42.43L66.05-42.43Q65.92-41.66 65.63-40.58L65.63-40.58L65.63-40.58Q65.34-39.49 65.02-38.50L65.02-38.50L65.02-38.50Q64.70-37.50 64.42-36.83L64.42-36.83L64.42-36.83Q64.13-36.16 63.94-36.22L63.94-36.22L63.94-36.22Q63.81-36.22 63.81-36.58L63.81-36.58L63.81-36.58Q63.81-36.93 63.87-37.34L63.87-37.34L63.87-37.34Q63.94-37.76 64-38.21L64-38.21L64-38.21Q64.06-38.66 64.06-38.91L64.06-38.91L64.64-42.82ZM42.18-40.13L42.18-40.13L42.18-40.13Q41.92-41.22 41.57-42.24L41.57-42.24L41.57-42.24Q41.22-43.26 40.64-44.16L40.64-44.16L40.64-44.16Q40.38-44.54 40.51-44.61L40.51-44.61L40.51-44.61Q40.64-44.61 40.90-44.48L40.90-44.48L41.15-44.35L41.15-44.35Q41.98-43.58 42.59-42.82L42.59-42.82L42.59-42.82Q43.20-42.05 43.58-40.26L43.58-40.26L43.58-40.26Q43.78-39.55 43.84-38.50L43.84-38.50L43.84-38.50Q43.90-37.44 43.87-36.42L43.87-36.42L43.87-36.42Q43.84-35.39 43.71-34.69L43.71-34.69L43.71-34.69Q43.58-33.98 43.33-34.05L43.33-34.05L43.33-34.05Q43.20-34.05 43.14-34.37L43.14-34.37L43.14-34.37Q43.07-34.69 43.01-35.10L43.01-35.10L43.01-35.10Q42.94-35.52 42.88-35.90L42.88-35.90L42.88-35.90Q42.82-36.29 42.82-36.42L42.82-36.42L42.82-36.42Q42.69-37.44 42.56-38.34L42.56-38.34L42.56-38.34Q42.43-39.23 42.18-40.13ZM102.53-41.47L102.53-41.47L102.53-41.47Q102.53-40.32 101.98-39.04L101.98-39.04L101.98-39.04Q101.44-37.76 100.67-36.54L100.67-36.54L100.67-36.54Q99.90-35.33 98.94-34.34L98.94-34.34L98.94-34.34Q97.98-33.34 97.09-32.70L97.09-32.70L97.09-32.70Q94.66-30.91 91.74-29.28L91.74-29.28L91.74-29.28Q88.83-27.65 86.08-26.56L86.08-26.56L86.08-26.56Q85.95-26.50 85.50-26.34L85.50-26.34L85.50-26.34Q85.06-26.18 84.93-26.30L84.93-26.30L84.93-26.30Q84.80-26.43 85.12-26.78L85.12-26.78L85.12-26.78Q85.44-27.14 85.63-27.26L85.63-27.26L85.63-27.26Q86.08-27.71 86.82-28.35L86.82-28.35L86.82-28.35Q87.55-28.99 88.35-29.60L88.35-29.60L88.35-29.60Q89.15-30.21 89.95-30.78L89.95-30.78L89.95-30.78Q90.75-31.36 91.39-31.68L91.39-31.68L91.39-31.68Q91.84-31.94 93.41-33.12L93.41-33.12L93.41-33.12Q94.98-34.30 96.77-35.87L96.77-35.87L96.77-35.87Q98.56-37.44 100.13-39.04L100.13-39.04L100.13-39.04Q101.70-40.64 102.08-41.66L102.08-41.66L102.08-41.66Q102.34-42.11 102.46-41.98L102.46-41.98L102.46-41.98Q102.53-41.92 102.53-41.73L102.53-41.73L102.53-41.73Q102.53-41.54 102.53-41.47ZM74.62-17.73L74.62-17.73L74.62-17.73Q76.99-17.41 79.23-16.80L79.23-16.80L79.23-16.80Q81.47-16.19 83.39-14.53L83.39-14.53L83.39-14.53Q85.63-12.61 88-10.27L88-10.27L88-10.27Q90.37-7.94 92.35-5.70L92.35-5.70L92.35-5.70Q92.48-5.57 92.74-5.22L92.74-5.22L92.74-5.22Q92.99-4.86 92.86-4.67L92.86-4.67L92.86-4.67Q92.80-4.54 92.38-4.70L92.38-4.70L92.38-4.70Q91.97-4.86 91.84-4.99L91.84-4.99L91.84-4.99Q91.26-5.31 90.46-5.86L90.46-5.86L90.46-5.86Q89.66-6.40 88.83-7.04L88.83-7.04L88.83-7.04Q88-7.68 87.23-8.29L87.23-8.29L87.23-8.29Q86.46-8.90 85.95-9.41L85.95-9.41L85.95-9.41Q85.63-9.73 84.26-10.85L84.26-10.85L84.26-10.85Q82.88-11.97 81.02-13.22L81.02-13.22L81.02-13.22Q79.17-14.46 77.15-15.55L77.15-15.55L77.15-15.55Q75.14-16.64 73.54-17.02L73.54-17.02L73.54-17.02Q73.02-17.15 73.06-17.66L73.06-17.66L73.06-17.66Q73.09-18.18 73.15-18.56L73.15-18.56L73.15-18.56Q73.28-19.33 73.50-20.48L73.50-20.48L73.50-20.48Q73.73-21.63 73.95-22.85L73.95-22.85L73.95-22.85Q74.18-24.06 74.43-25.22L74.43-25.22L74.43-25.22Q74.69-26.37 74.94-27.20L74.94-27.20L74.94-27.20Q75.14-27.78 75.65-30.08L75.65-30.08L75.65-30.08Q76.16-32.38 76.67-35.20L76.67-35.20L76.67-35.20Q77.18-38.02 77.44-40.64L77.44-40.64L77.44-40.64Q77.70-43.26 77.38-44.48L77.38-44.48L77.38-44.48Q77.25-45.06 77.44-45.06L77.44-45.06L77.44-45.06Q77.57-45.06 77.63-44.90L77.63-44.90L77.63-44.90Q77.70-44.74 77.82-44.61L77.82-44.61L77.82-44.61Q78.53-43.52 78.91-41.98L78.91-41.98L78.91-41.98Q79.30-40.45 79.39-38.75L79.39-38.75L79.39-38.75Q79.49-37.06 79.33-35.39L79.33-35.39L79.33-35.39Q79.17-33.73 78.85-32.51L78.85-32.51L78.85-32.51Q78.14-29.82 77.25-27.17L77.25-27.17L77.25-27.17Q76.35-24.51 75.33-21.82L75.33-21.82L75.33-21.82Q76.03-22.85 76.67-23.78L76.67-23.78L76.67-23.78Q77.31-24.70 77.82-25.54L77.82-25.54L77.89-25.86L77.89-25.86Q78.53-28.93 79.46-32.06L79.46-32.06L79.46-32.06Q80.38-35.20 80.51-38.85L80.51-38.85L80.51-38.85Q80.64-39.17 80.70-39.17L80.70-39.17L80.70-39.17Q80.77-39.17 80.83-39.04L80.83-39.04L80.83-39.04Q80.90-38.91 80.96-38.78L80.96-38.78L80.96-38.78Q81.66-37.06 81.47-34.27L81.47-34.27L81.47-34.27Q81.28-31.49 80.70-28.48L80.70-28.48L80.70-28.48Q81.47-29.12 82.21-29.70L82.21-29.70L82.21-29.70Q82.94-30.27 83.84-30.85L83.84-30.85L83.84-30.85Q86.27-32.51 88.83-34.05L88.83-34.05L88.83-34.05Q91.39-35.58 93.79-37.18L93.79-37.18L93.79-37.18Q96.19-38.78 98.24-40.45L98.24-40.45L98.24-40.45Q100.29-42.11 101.76-44.10L101.76-44.10L101.76-44.10Q101.95-44.29 102.02-44.16L102.02-44.16L102.02-44.16Q102.08-44.16 102.05-44L102.05-44L102.05-44Q102.02-43.84 102.02-43.78L102.02-43.78L102.02-43.78Q101.06-41.15 99.10-39.14L99.10-39.14L99.10-39.14Q97.15-37.12 94.69-35.39L94.69-35.39L94.69-35.39Q92.22-33.66 89.54-32.13L89.54-32.13L89.54-32.13Q86.85-30.59 84.42-28.86L84.42-28.86L84.42-28.86Q81.41-26.82 78.78-24L78.78-24L78.78-24Q76.16-21.18 74.62-17.73ZM77.70-18.11L77.70-18.11L77.70-18.11Q77.38-18.11 76.83-18.14L76.83-18.14L76.83-18.14Q76.29-18.18 75.84-18.11L75.84-18.11L75.84-18.11Q76.10-18.62 76.45-19.14L76.45-19.14L76.45-19.14Q76.80-19.65 77.12-20.16L77.12-20.16L77.12-20.16Q77.50-20.67 78.05-21.28L78.05-21.28L78.05-21.28Q78.59-21.89 79.14-22.37L79.14-22.37L79.14-22.37Q79.68-22.85 80.10-23.07L80.10-23.07L80.10-23.07Q80.51-23.30 80.64-23.04L80.64-23.04L80.64-23.04Q80.70-22.98 80.54-22.72L80.54-22.72L80.54-22.72Q80.38-22.46 80.13-22.11L80.13-22.11L80.13-22.11Q79.87-21.76 79.65-21.47L79.65-21.47L79.65-21.47Q79.42-21.18 79.36-21.06L79.36-21.06L79.36-21.06Q78.66-20.16 78.34-19.49L78.34-19.49L78.34-19.49Q78.02-18.82 77.70-18.11ZM102.21-0.77L102.21-0.77L102.21-0.77Q102.08-0.64 101.86-0.74L101.86-0.74L101.86-0.74Q101.63-0.83 101.38-0.96L101.38-0.96L101.38-0.96Q99.52-1.79 97.89-3.01L97.89-3.01L97.89-3.01Q96.26-4.22 94.72-5.63L94.72-5.63L94.72-5.63Q93.18-7.04 91.68-8.54L91.68-8.54L91.68-8.54Q90.18-10.05 88.64-11.52L88.64-11.52L88.64-11.52Q87.55-12.54 86.34-13.63L86.34-13.63L86.34-13.63Q85.12-14.72 83.84-15.65L83.84-15.65L83.84-15.65Q82.56-16.58 81.18-17.25L81.18-17.25L81.18-17.25Q79.81-17.92 78.40-18.11L78.40-18.11L78.40-18.11Q79.23-19.33 81.09-20.86L81.09-20.86L81.09-20.86Q82.94-22.40 85.12-23.87L85.12-23.87L85.12-23.87Q87.30-25.34 89.41-26.69L89.41-26.69L89.41-26.69Q91.52-28.03 92.86-28.86L92.86-28.86L92.86-28.86Q95.10-30.27 97.38-31.87L97.38-31.87L97.38-31.87Q99.65-33.47 101.57-35.78L101.57-35.78L101.57-35.78Q101.76-36.03 101.95-35.97L101.95-35.97L101.95-35.97Q101.95-35.84 101.89-35.74L101.89-35.74L101.89-35.74Q101.82-35.65 101.82-35.52L101.82-35.52L101.82-35.52Q101.50-33.92 99.94-32.16L99.94-32.16L99.94-32.16Q98.37-30.40 96.38-28.80L96.38-28.80L96.38-28.80Q94.40-27.20 92.35-25.82L92.35-25.82L92.35-25.82Q90.30-24.45 89.09-23.62L89.09-23.62L89.09-23.62Q87.94-22.85 86.69-22.14L86.69-22.14L86.69-22.14Q85.44-21.44 84.16-20.77L84.16-20.77L84.16-20.77Q82.88-20.10 81.70-19.55L81.70-19.55L81.70-19.55Q80.51-19.01 79.49-18.56L79.49-18.56L79.49-18.56Q81.15-18.56 83.30-17.54L83.30-17.54L83.30-17.54Q85.44-16.51 87.55-15.07L87.55-15.07L87.55-15.07Q89.66-13.63 91.46-12.06L91.46-12.06L91.46-12.06Q93.25-10.50 94.21-9.47L94.21-9.47L94.21-9.47Q96.26-7.23 98.27-5.12L98.27-5.12L98.27-5.12Q100.29-3.01 101.82-1.47L101.82-1.47L101.82-1.47Q102.34-0.96 102.21-0.77ZM75.97-46.21L75.97-46.21L75.97-46.21Q76.86-43.14 76.54-39.84L76.54-39.84L76.54-39.84Q76.22-36.54 75.30-33.09L75.30-33.09L75.30-33.09Q74.37-29.63 73.22-26.05L73.22-26.05L73.22-26.05Q72.06-22.46 71.23-18.94L71.23-18.94L71.23-18.94Q70.72-16.70 70.43-14.27L70.43-14.27L70.43-14.27Q70.14-11.84 70.24-9.38L70.24-9.38L70.24-9.38Q70.34-6.91 70.82-4.58L70.82-4.58L70.82-4.58Q71.30-2.24 72.38-0.26L72.38-0.26L72.38-0.26Q72.64 0.26 72.58 0.26L72.58 0.26L72.58 0.26Q72.45 0.26 72.32 0.13L72.32 0.13L72.32 0.13Q72.19 0 72.13 0L72.13 0L72.13 0Q70.34-2.11 69.50-4.58L69.50-4.58L69.50-4.58Q68.67-7.04 68.48-9.66L68.48-9.66L68.48-9.66Q68.29-12.29 68.64-14.98L68.64-14.98L68.64-14.98Q68.99-17.66 69.57-20.22L69.57-20.22L69.57-20.22Q70.40-23.74 71.49-27.23L71.49-27.23L71.49-27.23Q72.58-30.72 73.50-34.02L73.50-34.02L73.50-34.02Q74.43-37.31 75.07-40.38L75.07-40.38L75.07-40.38Q75.71-43.46 75.65-46.27L75.65-46.27L75.65-46.27Q75.65-46.66 75.71-46.66L75.71-46.66L75.71-46.66Q75.78-46.72 75.87-46.50L75.87-46.50L75.87-46.50Q75.97-46.27 75.97-46.21ZM106.24 1.28L106.24 1.28L106.24 1.28Q106.24 1.41 106.11 1.47L106.11 1.47L106.11 1.47Q105.98 1.54 105.86 1.60L105.86 1.60L105.86 1.60Q103.42 2.50 101.15 2.40L101.15 2.40L101.15 2.40Q98.88 2.30 96.74 1.63L96.74 1.63L96.74 1.63Q94.59 0.96 92.64-0.13L92.64-0.13L92.64-0.13Q90.69-1.22 88.96-2.30L88.96-2.30L88.96-2.30Q87.23-3.39 85.63-4.80L85.63-4.80L85.63-4.80Q84.03-6.21 82.50-7.68L82.50-7.68L82.50-7.68Q80.96-9.15 79.46-10.56L79.46-10.56L79.46-10.56Q77.95-11.97 76.48-13.06L76.48-13.06L74.50-6.40L74.50-6.40Q74.37-6.08 74.27-5.82L74.27-5.82L74.27-5.82Q74.18-5.57 74.05-5.63L74.05-5.63L74.05-5.63Q73.92-5.70 73.89-5.98L73.89-5.98L73.89-5.98Q73.86-6.27 73.86-6.59L73.86-6.59L73.86-6.59Q73.92-8.45 74.18-10.37L74.18-10.37L74.18-10.37Q74.43-12.29 74.82-14.21L74.82-14.21L74.82-14.21Q74.43-14.46 73.86-14.78L73.86-14.78L73.86-14.78Q73.28-15.10 72.77-15.42L72.77-15.42L72.77-15.42Q72.64-15.49 72.45-15.65L72.45-15.65L72.45-15.65Q72.26-15.81 72.32-15.94L72.32-15.94L72.32-15.94Q72.32-16 72.64-16L72.64-16L72.64-16Q74.94-15.81 77.15-14.50L77.15-14.50L77.15-14.50Q79.36-13.18 81.57-11.36L81.57-11.36L81.57-11.36Q83.78-9.54 86.02-7.42L86.02-7.42L86.02-7.42Q88.26-5.31 90.69-3.39L90.69-3.39L90.69-3.39Q93.76-1.02 97.73 0.35L97.73 0.35L97.73 0.35Q101.70 1.73 105.79 1.22L105.79 1.22L105.79 1.22Q106.24 1.09 106.24 1.28ZM74.37 0.26L74.37 0.26L74.37 0.26Q74.24 0.26 73.98 0.13L73.98 0.13L73.98 0.13Q73.86 0.06 73.79-0.06L73.79-0.06L73.79-0.06Q72.96-1.02 72.48-1.86L72.48-1.86L72.48-1.86Q72-2.69 71.68-4.54L71.68-4.54L71.68-4.54Q71.55-5.25 71.52-6.34L71.52-6.34L71.52-6.34Q71.49-7.42 71.55-8.45L71.55-8.45L71.55-8.45Q71.62-9.47 71.78-10.18L71.78-10.18L71.78-10.18Q71.94-10.88 72.19-10.88L72.19-10.88L72.19-10.88Q72.26-10.88 72.35-10.56L72.35-10.56L72.35-10.56Q72.45-10.24 72.51-9.82L72.51-9.82L72.51-9.82Q72.58-9.41 72.61-8.99L72.61-8.99L72.61-8.99Q72.64-8.58 72.64-8.45L72.64-8.45L72.64-8.45Q72.77-7.04 72.86-6.14L72.86-6.14L72.86-6.14Q72.96-5.25 73.09-4.54L73.09-4.54L73.09-4.54Q73.41-2.50 74.37-0.26L74.37-0.26L74.37-0.26Q74.43-0.13 74.46 0.06L74.46 0.06L74.46 0.06Q74.50 0.26 74.37 0.26ZM97.54-1.02L97.54-1.02L97.54-1.02Q97.98-0.96 98.66-0.80L98.66-0.80L98.66-0.80Q99.33-0.64 99.71-0.51L99.71-0.51L99.71-0.51Q101.38-0.06 102.50 0.16L102.50 0.16L102.50 0.16Q103.62 0.38 105.15 0.45L105.15 0.45L105.15 0.45Q105.28 0.45 105.50 0.45L105.50 0.45L105.50 0.45Q105.73 0.45 105.73 0.58L105.73 0.58L105.73 0.58Q105.73 0.83 105.09 0.90L105.09 0.90L105.09 0.90Q104.32 1.02 103.74 1.02L103.74 1.02L103.74 1.02Q103.17 1.02 102.27 0.96L102.27 0.96L102.27 0.96Q101.76 0.90 101.06 0.77L101.06 0.77L101.06 0.77Q100.35 0.64 99.65 0.42L99.65 0.42L99.65 0.42Q98.94 0.19 98.34-0.03L98.34-0.03L98.34-0.03Q97.73-0.26 97.47-0.51L97.47-0.51L97.47-0.51Q97.22-0.77 97.28-0.96L97.28-0.96L97.28-0.96Q97.28-1.02 97.54-1.02Z" fill="url(#editing-shiny-gradient)"></path></g></g><g filter="url(#editing-shiny2)"><g transform="translate(197.64713096618652, 100.38720321655273)"><path d="M4.10 1.02L4.10 1.02L4.10 1.02Q3.65 1.47 3.52 1.41L3.52 1.41L3.52 1.41Q3.39 1.34 3.52 1.12L3.52 1.12L3.52 1.12Q3.65 0.90 3.71 0.77L3.71 0.77L3.71 0.77Q4.22 0.19 4.51-0.10L4.51-0.10L4.51-0.10Q4.80-0.38 5.18-0.70L5.18-0.70L5.18-0.70Q3.65-2.75 2.94-5.09L2.94-5.09L2.94-5.09Q2.24-7.42 2.11-9.92L2.11-9.92L2.11-9.92Q1.98-12.42 2.34-14.98L2.34-14.98L2.34-14.98Q2.69-17.54 3.26-19.97L3.26-19.97L3.26-19.97Q4.42-24.77 5.92-29.34L5.92-29.34L5.92-29.34Q7.42-33.92 8.45-38.14L8.45-38.14L8.45-38.14Q6.40-37.76 4.77-37.12L4.77-37.12L4.77-37.12Q3.14-36.48 2.62-35.71L2.62-35.71L2.62-35.71Q2.43-35.39 2.27-35.46L2.27-35.46L2.27-35.46Q2.11-35.52 2.37-36.03L2.37-36.03L2.37-36.03Q2.88-37.12 4.22-37.98L4.22-37.98L4.22-37.98Q5.57-38.85 7.30-39.42L7.30-39.42L7.30-39.42Q9.02-40 11.04-40.32L11.04-40.32L11.04-40.32Q13.06-40.64 14.91-40.58L14.91-40.58L14.91-40.58Q19.07-40.45 21.86-38.98L21.86-38.98L21.86-38.98Q24.64-37.50 24.70-34.62L24.70-34.62L24.70-34.62Q24.70-32.83 23.46-31.04L23.46-31.04L23.46-31.04Q22.21-29.25 20.45-27.68L20.45-27.68L20.45-27.68Q18.69-26.11 16.70-24.86L16.70-24.86L16.70-24.86Q14.72-23.62 13.31-22.91L13.31-22.91L13.06-22.02L13.06-22.02Q14.02-22.85 15.62-23.36L15.62-23.36L15.62-23.36Q17.22-23.87 18.98-23.87L18.98-23.87L18.98-23.87Q20.74-23.87 22.43-23.26L22.43-23.26L22.43-23.26Q24.13-22.66 25.41-21.31L25.41-21.31L25.41-21.31Q27.14-19.39 27.62-16.93L27.62-16.93L27.62-16.93Q28.10-14.46 27.33-12.10L27.33-12.10L27.33-12.10Q26.62-9.73 24.96-8.22L24.96-8.22L24.96-8.22Q23.30-6.72 21.57-5.95L21.57-5.95L21.57-5.95Q21.38-5.82 20.86-5.66L20.86-5.66L20.86-5.66Q20.35-5.50 20.22-5.70L20.22-5.70L20.22-5.70Q20.16-5.82 20.54-6.18L20.54-6.18L20.54-6.18Q20.93-6.53 21.12-6.66L21.12-6.66L21.12-6.66Q22.85-7.81 24.06-9.79L24.06-9.79L24.06-9.79Q25.28-11.78 25.57-13.92L25.57-13.92L25.57-13.92Q25.86-16.06 25.09-18.05L25.09-18.05L25.09-18.05Q24.32-20.03 22.08-21.12L22.08-21.12L22.08-21.12Q21.18-21.57 19.71-21.79L19.71-21.79L19.71-21.79Q18.24-22.02 16.77-21.92L16.77-21.92L16.77-21.92Q15.30-21.82 14.05-21.25L14.05-21.25L14.05-21.25Q12.80-20.67 12.29-19.46L12.29-19.46L12.29-19.46Q13.44-20.16 14.91-20.54L14.91-20.54L14.91-20.54Q16.38-20.93 17.89-20.90L17.89-20.90L17.89-20.90Q19.39-20.86 20.74-20.32L20.74-20.32L20.74-20.32Q22.08-19.78 22.98-18.69L22.98-18.69L22.98-18.69Q24.06-17.34 24.22-15.87L24.22-15.87L24.22-15.87Q24.38-14.40 23.90-12.99L23.90-12.99L23.90-12.99Q23.42-11.58 22.37-10.37L22.37-10.37L22.37-10.37Q21.31-9.15 19.97-8.32L19.97-8.32L19.97-8.32Q18.18-7.23 16-6.18L16-6.18L16-6.18Q13.82-5.12 11.65-4L11.65-4L11.65-4Q9.47-2.88 7.49-1.63L7.49-1.63L7.49-1.63Q5.50-0.38 4.10 1.02ZM11.78-17.28L11.78-17.28L11.78-17.28Q10.62-14.40 9.89-11.49L9.89-11.49L9.89-11.49Q9.15-8.58 8.26-6.14L8.26-6.14L8.26-6.14Q7.94-5.31 7.81-5.38L7.81-5.38L7.81-5.38Q7.62-5.44 7.62-5.73L7.62-5.73L7.62-5.73Q7.62-6.02 7.62-6.34L7.62-6.34L7.62-6.34Q7.81-11.20 9.02-15.97L9.02-15.97L9.02-15.97Q10.24-20.74 11.65-25.60L11.65-25.60L11.65-25.60Q12.54-28.61 13.34-31.78L13.34-31.78L13.34-31.78Q14.14-34.94 14.27-38.59L14.27-38.59L13.18-38.59L13.18-38.59Q13.25-36.86 13.09-35.17L13.09-35.17L13.09-35.17Q12.93-33.47 12.61-32.26L12.61-32.26L12.61-32.26Q11.71-28.80 10.43-25.09L10.43-25.09L10.43-25.09Q9.15-21.38 7.74-18.05L7.74-18.05L7.74-18.05Q7.68-17.92 7.46-17.44L7.46-17.44L7.46-17.44Q7.23-16.96 7.04-17.02L7.04-17.02L7.04-17.02Q6.91-17.09 6.88-17.60L6.88-17.60L6.88-17.60Q6.85-18.11 6.91-18.30L6.91-18.30L6.91-18.30Q6.98-19.07 7.20-20.22L7.20-20.22L7.20-20.22Q7.42-21.38 7.65-22.59L7.65-22.59L7.65-22.59Q7.87-23.81 8.16-24.96L8.16-24.96L8.16-24.96Q8.45-26.11 8.70-26.94L8.70-26.94L8.70-26.94Q8.77-27.26 9.06-28.42L9.06-28.42L9.06-28.42Q9.34-29.57 9.66-31.20L9.66-31.20L9.66-31.20Q9.98-32.83 10.34-34.72L10.34-34.72L10.34-34.72Q10.69-36.61 10.94-38.40L10.94-38.40L10.94-38.40Q10.43-38.40 10.18-38.34L10.18-38.34L10.18-38.34Q9.86-35.97 9.25-33.54L9.25-33.54L9.25-33.54Q8.64-31.10 7.87-28.61L7.87-28.61L7.87-28.61Q7.10-26.11 6.34-23.65L6.34-23.65L6.34-23.65Q5.57-21.18 4.99-18.69L4.99-18.69L4.99-18.69Q4.48-16.58 4.22-14.27L4.22-14.27L4.22-14.27Q3.97-11.97 3.97-9.70L3.97-9.70L3.97-9.70Q3.97-7.42 4.35-5.25L4.35-5.25L4.35-5.25Q4.74-3.07 5.57-1.09L5.57-1.09L6.14-1.66L6.14-1.66Q5.95-2.11 5.76-2.75L5.76-2.75L5.76-2.75Q5.57-3.39 5.44-4.29L5.44-4.29L5.44-4.29Q5.31-4.99 5.28-6.08L5.28-6.08L5.28-6.08Q5.25-7.17 5.31-8.19L5.31-8.19L5.31-8.19Q5.38-9.22 5.50-9.92L5.50-9.92L5.50-9.92Q5.63-10.62 5.89-10.62L5.89-10.62L5.89-10.62Q5.95-10.62 6.05-10.30L6.05-10.30L6.05-10.30Q6.14-9.98 6.21-9.54L6.21-9.54L6.21-9.54Q6.27-9.09 6.34-8.70L6.34-8.70L6.34-8.70Q6.40-8.32 6.40-8.13L6.40-8.13L6.40-8.13Q6.46-7.55 6.53-6.85L6.53-6.85L6.53-6.85Q6.59-6.14 6.69-5.38L6.69-5.38L6.69-5.38Q6.78-4.61 6.88-3.87L6.88-3.87L6.88-3.87Q6.98-3.14 7.17-2.62L7.17-2.62L7.17-2.62Q8.64-3.97 10.30-5.02L10.30-5.02L10.30-5.02Q11.97-6.08 13.60-6.98L13.60-6.98L13.60-6.98Q15.23-7.87 16.77-8.70L16.77-8.70L16.77-8.70Q18.30-9.54 19.46-10.37L19.46-10.37L19.46-10.37Q21.44-11.71 22.02-13.79L22.02-13.79L22.02-13.79Q22.59-15.87 21.31-17.54L21.31-17.54L21.31-17.54Q20.48-18.62 19.04-19.07L19.04-19.07L19.04-19.07Q17.60-19.52 16.10-19.42L16.10-19.42L16.10-19.42Q14.59-19.33 13.38-18.75L13.38-18.75L13.38-18.75Q12.16-18.18 11.78-17.28ZM21.95-27.07L21.95-27.07L21.95-27.07Q22.08-27.01 21.66-26.40L21.66-26.40L21.66-26.40Q21.25-25.79 21.12-25.54L21.12-25.54L21.12-25.54Q23.30-25.86 24.99-27.07L24.99-27.07L24.99-27.07Q26.69-28.29 27.71-29.98L27.71-29.98L27.71-29.98Q28.74-31.68 28.99-33.70L28.99-33.70L28.99-33.70Q29.25-35.71 28.61-37.76L28.61-37.76L28.61-37.76Q27.97-39.81 26.50-41.22L26.50-41.22L26.50-41.22Q25.02-42.62 23.10-43.52L23.10-43.52L23.10-43.52Q21.18-44.42 18.94-44.80L18.94-44.80L18.94-44.80Q16.70-45.18 14.46-45.15L14.46-45.15L14.46-45.15Q12.22-45.12 10.18-44.74L10.18-44.74L10.18-44.74Q8.13-44.35 6.59-43.65L6.59-43.65L6.59-43.65Q6.27-43.52 6.24-43.52L6.24-43.52L6.24-43.52Q6.21-43.52 6.14-43.58L6.14-43.58L6.14-43.58Q6.08-43.78 6.46-44.03L6.46-44.03L6.46-44.03Q8.06-45.44 10.53-46.14L10.53-46.14L10.53-46.14Q12.99-46.85 15.71-46.85L15.71-46.85L15.71-46.85Q18.43-46.85 21.18-46.11L21.18-46.11L21.18-46.11Q23.94-45.38 26.14-43.87L26.14-43.87L26.14-43.87Q28.35-42.37 29.79-40.03L29.79-40.03L29.79-40.03Q31.23-37.70 31.36-34.56L31.36-34.56L31.36-34.56Q31.42-32.64 30.85-31.07L30.85-31.07L30.85-31.07Q30.27-29.50 29.31-28.29L29.31-28.29L29.31-28.29Q28.35-27.07 27.10-26.21L27.10-26.21L27.10-26.21Q25.86-25.34 24.51-24.77L24.51-24.77L24.51-24.77Q26.62-23.81 28.16-21.79L28.16-21.79L28.16-21.79Q29.70-19.78 30.34-17.79L30.34-17.79L30.34-17.79Q31.10-15.17 30.69-12.80L30.69-12.80L30.69-12.80Q30.27-10.43 29.28-8.51L29.28-8.51L29.28-8.51Q28.29-6.59 27.04-5.22L27.04-5.22L27.04-5.22Q25.79-3.84 24.90-3.26L24.90-3.26L24.90-3.26Q23.04-2.05 21.12-1.38L21.12-1.38L21.12-1.38Q19.20-0.70 17.34-0.35L17.34-0.35L17.34-0.35Q15.49 0 13.79 0.13L13.79 0.13L13.79 0.13Q12.10 0.26 10.75 0.32L10.75 0.32L10.75 0.32Q9.73 0.45 9.73 0.26L9.73 0.26L9.73 0.26Q9.66 0.13 10.08 0.03L10.08 0.03L10.08 0.03Q10.50-0.06 10.82-0.13L10.82-0.13L10.82-0.13Q13.31-0.58 15.74-1.34L15.74-1.34L15.74-1.34Q18.18-2.11 20.67-3.39L20.67-3.39L20.67-3.39Q21.89-4.03 23.20-4.90L23.20-4.90L23.20-4.90Q24.51-5.76 25.63-6.94L25.63-6.94L25.63-6.94Q26.75-8.13 27.55-9.60L27.55-9.60L27.55-9.60Q28.35-11.07 28.61-12.86L28.61-12.86L28.61-12.86Q28.93-15.10 28.51-17.31L28.51-17.31L28.51-17.31Q28.10-19.52 26.37-21.57L26.37-21.57L26.37-21.57Q24.70-23.55 22.88-24.26L22.88-24.26L22.88-24.26Q21.06-24.96 18.94-24.83L18.94-24.83L18.94-24.83Q18.43-24.83 18.43-24.90L18.43-24.90L18.43-24.90Q18.43-25.02 19.14-25.34L19.14-25.34L19.14-25.34Q19.84-25.66 20.03-25.79L20.03-25.79L20.03-25.79Q20.61-26.18 21.25-26.69L21.25-26.69L21.25-26.69Q21.89-27.20 21.95-27.07ZM22.72-34.37L22.72-34.37L22.72-34.37Q22.72-36.42 20.54-37.34L20.54-37.34L20.54-37.34Q18.37-38.27 14.53-38.59L14.53-38.59L14.53-38.59Q14.98-36.61 15.10-34.94L15.10-34.94L15.10-34.94Q15.23-33.28 15.07-31.65L15.07-31.65L15.07-31.65Q14.91-30.02 14.50-28.26L14.50-28.26L14.50-28.26Q14.08-26.50 13.57-24.38L13.57-24.38L13.57-24.38Q14.91-25.02 16.51-26.34L16.51-26.34L16.51-26.34Q18.11-27.65 19.49-29.09L19.49-29.09L19.49-29.09Q20.86-30.53 21.79-31.97L21.79-31.97L21.79-31.97Q22.72-33.41 22.72-34.37ZM13.89-44.16L13.89-44.16L13.89-44.16Q16.06-44.29 18.85-43.68L18.85-43.68L18.85-43.68Q21.63-43.07 23.87-41.73L23.87-41.73L23.87-41.73Q25.02-41.02 25.79-40L25.79-40L25.79-40Q26.56-38.98 26.98-37.86L26.98-37.86L26.98-37.86Q27.39-36.74 27.46-35.58L27.46-35.58L27.46-35.58Q27.52-34.43 27.20-33.47L27.20-33.47L27.20-33.47Q27.14-33.34 27.07-33.12L27.07-33.12L27.07-33.12Q27.01-32.90 26.88-32.67L26.88-32.67L26.88-32.67Q26.75-32.45 26.62-32.29L26.62-32.29L26.62-32.29Q26.50-32.13 26.37-32.19L26.37-32.19L26.37-32.19Q26.18-32.19 26.21-32.64L26.21-32.64L26.21-32.64Q26.24-33.09 26.37-33.60L26.37-33.60L26.37-33.60Q26.69-35.39 26.08-36.74L26.08-36.74L26.08-36.74Q25.47-38.08 24.26-39.01L24.26-39.01L24.26-39.01Q23.04-39.94 21.44-40.51L21.44-40.51L21.44-40.51Q19.84-41.09 18.14-41.41L18.14-41.41L18.14-41.41Q16.45-41.73 14.85-41.76L14.85-41.76L14.85-41.76Q13.25-41.79 12.10-41.66L12.10-41.66L12.10-41.66Q10.50-41.47 8.93-41.06L8.93-41.06L8.93-41.06Q7.36-40.64 6.02-40.13L6.02-40.13L6.02-40.13Q4.67-39.62 3.71-39.04L3.71-39.04L3.71-39.04Q2.75-38.46 2.37-37.95L2.37-37.95L2.37-37.95Q1.98-37.44 1.92-37.63L1.92-37.63L1.92-37.63Q1.92-37.82 2.05-38.21L2.05-38.21L2.05-38.21Q2.50-39.49 3.71-40.54L3.71-40.54L3.71-40.54Q4.93-41.60 6.53-42.37L6.53-42.37L6.53-42.37Q8.13-43.14 10.05-43.58L10.05-43.58L10.05-43.58Q11.97-44.03 13.89-44.16ZM10.75-1.02L10.75-1.02L10.75-1.02Q8.64-0.19 7.39 0.45L7.39 0.45L7.39 0.45Q6.14 1.09 4.93 2.11L4.93 2.11L4.93 2.11Q4.80 2.18 4.67 2.37L4.67 2.37L4.67 2.37Q4.54 2.56 4.42 2.50L4.42 2.50L4.42 2.50Q4.29 2.43 4.42 2.14L4.42 2.14L4.42 2.14Q4.54 1.86 4.67 1.73L4.67 1.73L4.67 1.73Q5.31 0.83 6.34-0.03L6.34-0.03L6.34-0.03Q7.36-0.90 9.22-1.66L9.22-1.66L9.22-1.66Q9.86-1.92 10.66-2.21L10.66-2.21L10.66-2.21Q11.46-2.50 12.19-2.69L12.19-2.69L12.19-2.69Q12.93-2.88 13.41-2.94L13.41-2.94L13.41-2.94Q13.89-3.01 14.02-2.82L14.02-2.82L14.02-2.82Q14.08-2.69 13.63-2.43L13.63-2.43L13.63-2.43Q13.18-2.18 12.61-1.89L12.61-1.89L12.61-1.89Q12.03-1.60 11.49-1.34L11.49-1.34L11.49-1.34Q10.94-1.09 10.75-1.02ZM49.60-32.19L49.60-32.19L49.60-32.19Q50.18-28.80 50.30-24.77L50.30-24.77L50.30-24.77Q50.43-20.74 50.56-17.34L50.56-17.34L50.56-17.34Q50.56-17.15 50.53-16.64L50.53-16.64L50.53-16.64Q50.50-16.13 50.24-16.06L50.24-16.06L50.24-16.06Q50.11-16.06 49.92-16.61L49.92-16.61L49.92-16.61Q49.73-17.15 49.66-17.34L49.66-17.34L49.66-17.34Q49.41-18.11 49.18-19.14L49.18-19.14L49.18-19.14Q48.96-20.16 48.77-21.22L48.77-21.22L48.77-21.22Q48.58-22.27 48.45-23.33L48.45-23.33L48.45-23.33Q48.32-24.38 48.26-25.28L48.26-25.28L48.26-25.28Q48.26-25.47 48.16-26.37L48.16-26.37L48.16-26.37Q48.06-27.26 47.87-28.45L47.87-28.45L47.87-28.45Q47.68-29.63 47.42-31.01L47.42-31.01L47.42-31.01Q47.17-32.38 46.85-33.66L46.85-33.66L46.85-33.66Q46.85-30.98 46.75-28.38L46.75-28.38L46.75-28.38Q46.66-25.79 46.85-23.17L46.85-23.17L46.85-23.17Q46.98-21.50 47.23-19.94L47.23-19.94L47.23-19.94Q47.49-18.37 47.81-16.77L47.81-16.77L47.81-16.77Q48.26-14.53 49.15-12.29L49.15-12.29L49.15-12.29Q50.05-10.05 51.30-8.06L51.30-8.06L51.30-8.06Q52.54-6.08 54.18-4.45L54.18-4.45L54.18-4.45Q55.81-2.82 57.73-1.86L57.73-1.86L57.73-1.86Q58.05-1.73 58.02-1.57L58.02-1.57L58.02-1.57Q57.98-1.41 57.73-1.47L57.73-1.47L57.73-1.47Q55.10-2.05 53.12-3.62L53.12-3.62L53.12-3.62Q51.14-5.18 49.63-7.36L49.63-7.36L49.63-7.36Q48.13-9.54 47.17-12.10L47.17-12.10L47.17-12.10Q46.21-14.66 45.70-17.22L45.70-17.22L45.70-17.22Q45.50-18.30 45.31-19.39L45.31-19.39L45.31-19.39Q45.12-20.48 44.99-21.57L44.99-21.57L44.99-21.57Q44.03-18.50 42.91-15.55L42.91-15.55L42.91-15.55Q41.79-12.61 40.77-9.92L40.77-9.92L40.77-9.92Q39.74-7.23 38.98-4.74L38.98-4.74L38.98-4.74Q38.21-2.24 37.82 0L37.82 0L37.82 0Q37.76 0.06 37.76 0.13L37.76 0.13L37.76 0.13Q37.63 0.26 37.63 0.26L37.63 0.26L37.63 0.26Q37.44 0.26 37.44 0L37.44 0L37.44 0Q36.99-2.94 37.66-6.05L37.66-6.05L37.66-6.05Q38.34-9.15 39.52-12.42L39.52-12.42L39.52-12.42Q40.70-15.68 42.05-19.10L42.05-19.10L42.05-19.10Q43.39-22.53 44.29-26.05L44.29-26.05L44.29-26.05Q44.86-28.22 45.12-30.69L45.12-30.69L45.12-30.69Q45.38-33.15 45.25-35.55L45.25-35.55L45.25-35.55Q45.12-37.95 44.45-40.19L44.45-40.19L44.45-40.19Q43.78-42.43 42.56-44.29L42.56-44.29L42.56-44.29Q42.24-44.67 42.37-44.80L42.37-44.80L42.37-44.80Q42.50-44.93 42.75-44.80L42.75-44.80L42.75-44.80Q43.01-44.67 43.20-44.48L43.20-44.48L43.20-44.48Q44.48-43.20 45.47-42.02L45.47-42.02L45.47-42.02Q46.46-40.83 47.23-39.42L47.23-39.42L47.23-39.42Q48-38.02 48.58-36.29L48.58-36.29L48.58-36.29Q49.15-34.56 49.60-32.19ZM57.34-17.28L57.34-17.28L57.34-17.28Q57.73-19.14 58.05-20.54L58.05-20.54L58.05-20.54Q58.37-21.95 58.78-23.23L58.78-23.23L58.78-23.23Q59.20-24.51 59.74-25.82L59.74-25.82L59.74-25.82Q60.29-27.14 61.12-28.74L61.12-28.74L61.12-28.74Q61.25-28.93 61.54-29.41L61.54-29.41L61.54-29.41Q61.82-29.89 62.02-29.82L62.02-29.82L62.02-29.82Q62.14-29.82 62.08-29.25L62.08-29.25L62.08-29.25Q62.02-28.67 61.95-28.48L61.95-28.48L61.95-28.48Q61.76-27.65 61.47-26.56L61.47-26.56L61.47-26.56Q61.18-25.47 60.86-24.29L60.86-24.29L60.86-24.29Q60.54-23.10 60.22-21.95L60.22-21.95L60.22-21.95Q59.90-20.80 59.71-19.97L59.71-19.97L59.71-19.97Q59.46-18.88 59.17-17.31L59.17-17.31L59.17-17.31Q58.88-15.74 58.59-13.82L58.59-13.82L58.59-13.82Q58.30-11.90 58.14-9.73L58.14-9.73L58.14-9.73Q57.98-7.55 58.05-5.25L58.05-5.25L58.05-5.25Q57.47-5.57 56.86-6.05L56.86-6.05L56.86-6.05Q56.26-6.53 55.68-7.42L55.68-7.42L55.68-7.42Q54.34-9.34 53.60-11.49L53.60-11.49L53.60-11.49Q52.86-13.63 52.42-15.94L52.42-15.94L52.42-15.94Q51.97-18.24 51.78-20.64L51.78-20.64L51.78-20.64Q51.58-23.04 51.33-25.34L51.33-25.34L51.33-25.34Q51.01-28.35 50.75-31.42L50.75-31.42L50.75-31.42Q50.50-34.50 49.41-37.76L49.41-37.76L49.41-37.76Q49.28-38.08 49.25-38.11L49.25-38.11L49.25-38.11Q49.22-38.14 49.34-38.21L49.34-38.21L49.34-38.21Q49.54-38.21 49.73-37.89L49.73-37.89L49.73-37.89Q50.56-37.06 51.17-35.49L51.17-35.49L51.17-35.49Q51.78-33.92 52.26-32L52.26-32L52.26-32Q52.74-30.08 53.09-27.94L53.09-27.94L53.09-27.94Q53.44-25.79 53.70-23.78L53.70-23.78L53.70-23.78Q53.95-21.76 54.18-20.06L54.18-20.06L54.18-20.06Q54.40-18.37 54.59-17.28L54.59-17.28L54.59-17.28Q55.04-20.99 55.55-23.90L55.55-23.90L55.55-23.90Q56.06-26.82 56.64-28.61L56.64-28.61L56.64-28.61Q57.15-30.21 57.86-31.94L57.86-31.94L57.86-31.94Q58.56-33.66 59.39-35.36L59.39-35.36L59.39-35.36Q60.22-37.06 61.09-38.59L61.09-38.59L61.09-38.59Q61.95-40.13 62.72-41.28L62.72-41.28L62.72-41.28Q62.91-41.60 63.10-41.86L63.10-41.86L63.10-41.86Q63.30-42.11 63.42-41.98L63.42-41.98L63.42-41.98Q63.55-41.86 63.46-41.57L63.46-41.57L63.46-41.57Q63.36-41.28 63.23-40.96L63.23-40.96L63.23-40.96Q62.40-38.46 61.66-36.48L61.66-36.48L61.66-36.48Q60.93-34.50 60.19-32.58L60.19-32.58L60.19-32.58Q59.46-30.66 58.82-28.58L58.82-28.58L58.82-28.58Q58.18-26.50 57.54-23.94L57.54-23.94L57.54-23.94Q57.15-22.27 56.64-20.42L56.64-20.42L56.64-20.42Q56.13-18.56 55.84-16.61L55.84-16.61L55.84-16.61Q55.55-14.66 55.65-12.64L55.65-12.64L55.65-12.64Q55.74-10.62 56.58-8.70L56.58-8.70L56.58-8.70Q56.51-9.79 56.58-11.17L56.58-11.17L56.58-11.17Q56.64-12.54 56.80-13.79L56.80-13.79L56.80-13.79Q56.96-15.04 57.12-16L57.12-16L57.12-16Q57.28-16.96 57.34-17.28ZM56.06-5.50L56.06-5.50L56.06-5.50Q56.77-4.74 57.54-4.13L57.54-4.13L57.54-4.13Q58.30-3.52 59.20-3.01L59.20-3.01L59.20-3.01Q58.69-5.89 59.01-8.99L59.01-8.99L59.01-8.99Q59.33-12.10 60.10-15.30L60.10-15.30L60.10-15.30Q60.86-18.50 61.89-21.70L61.89-21.70L61.89-21.70Q62.91-24.90 63.87-27.97L63.87-27.97L63.87-27.97Q65.28-32.45 66.14-37.28L66.14-37.28L66.14-37.28Q67.01-42.11 67.14-46.91L67.14-46.91L67.14-46.91Q67.14-47.42 67.20-47.42L67.20-47.42L67.20-47.42Q67.39-47.42 67.39-47.10L67.39-47.10L67.39-47.10Q67.97-44.35 68.03-41.76L68.03-41.76L68.03-41.76Q68.10-39.17 67.78-36.64L67.78-36.64L67.78-36.64Q67.46-34.11 66.88-31.62L66.88-31.62L66.88-31.62Q66.30-29.12 65.54-26.56L65.54-26.56L65.54-26.56Q64.58-23.10 63.55-19.62L63.55-19.62L63.55-19.62Q62.53-16.13 61.73-12.77L61.73-12.77L61.73-12.77Q60.93-9.41 60.54-6.18L60.54-6.18L60.54-6.18Q60.16-2.94 60.42-0.06L60.42-0.06L60.42-0.06Q60.42 0.19 60.29 0.19L60.29 0.19L60.29 0.19Q60.16 0.19 60.13 0.10L60.13 0.10L60.13 0.10Q60.10 0 60.03-0.06L60.03-0.06L60.03-0.06Q59.78-0.70 59.74-0.77L59.74-0.77L59.74-0.77Q59.71-0.83 59.52-1.47L59.52-1.47L59.52-1.47Q59.39-1.98 59.14-2.18L59.14-2.18L59.14-2.18Q58.88-2.37 58.75-2.43L58.75-2.43L58.75-2.43Q57.66-2.82 56.90-3.14L56.90-3.14L56.90-3.14Q56.13-3.46 54.85-4.74L54.85-4.74L54.85-4.74Q54.34-5.25 53.76-6.14L53.76-6.14L53.76-6.14Q53.18-7.04 52.74-7.90L52.74-7.90L52.74-7.90Q52.29-8.77 52.10-9.44L52.10-9.44L52.10-9.44Q51.90-10.11 52.10-10.18L52.10-10.18L52.10-10.18Q52.16-10.18 52.42-9.95L52.42-9.95L52.42-9.95Q52.67-9.73 52.93-9.44L52.93-9.44L52.93-9.44Q53.18-9.15 53.41-8.83L53.41-8.83L53.41-8.83Q53.63-8.51 53.70-8.45L53.70-8.45L53.70-8.45Q54.85-6.72 56.06-5.50ZM37.31-26.82L37.31-26.82L37.31-26.82Q38.08-29.76 39.14-32.83L39.14-32.83L39.14-32.83Q40.19-35.90 40.90-38.34L40.90-38.34L40.90-38.34Q41.02-38.66 41.12-38.91L41.12-38.91L41.12-38.91Q41.22-39.17 41.34-39.10L41.34-39.10L41.34-39.10Q41.47-39.10 41.47-38.78L41.47-38.78L41.47-38.78Q41.47-38.46 41.47-38.14L41.47-38.14L41.47-38.14Q41.54-33.47 40.26-28.80L40.26-28.80L40.26-28.80Q38.98-24.13 37.38-19.58L37.38-19.58L37.38-19.58Q36.35-16.70 35.33-13.73L35.33-13.73L35.33-13.73Q34.30-10.75 33.79-7.30L33.79-7.30L33.79-7.30Q33.73-6.98 33.73-6.94L33.73-6.94L33.73-6.94Q33.73-6.91 33.60-6.91L33.60-6.91L33.60-6.91Q33.54-6.91 33.41-7.36L33.41-7.36L33.41-7.36Q33.02-9.09 33.44-11.71L33.44-11.71L33.44-11.71Q33.86-14.34 34.56-17.18L34.56-17.18L34.56-17.18Q35.26-20.03 36.10-22.62L36.10-22.62L36.10-22.62Q36.93-25.22 37.31-26.82ZM36.10-13.18L36.10-13.18L36.10-13.18Q37.25-16.45 38.69-20L38.69-20L38.69-20Q40.13-23.55 41.60-26.75L41.60-26.75L41.60-26.75Q41.66-26.88 41.92-27.33L41.92-27.33L41.92-27.33Q42.18-27.78 42.30-27.78L42.30-27.78L42.30-27.78Q42.43-27.71 42.46-27.20L42.46-27.20L42.46-27.20Q42.50-26.69 42.37-26.50L42.37-26.50L42.37-26.50Q42.24-25.73 42.02-24.61L42.02-24.61L42.02-24.61Q41.79-23.49 41.47-22.30L41.47-22.30L41.47-22.30Q41.15-21.12 40.83-20.03L40.83-20.03L40.83-20.03Q40.51-18.94 40.26-18.18L40.26-18.18L40.26-18.18Q40.06-17.60 39.39-15.36L39.39-15.36L39.39-15.36Q38.72-13.12 38.02-10.40L38.02-10.40L38.02-10.40Q37.31-7.68 36.77-5.12L36.77-5.12L36.77-5.12Q36.22-2.56 36.35-1.34L36.35-1.34L36.35-1.34Q36.35-0.77 36.16-0.77L36.16-0.77L36.16-0.77Q36.10-0.77 36-0.99L36-0.99L36-0.99Q35.90-1.22 35.78-1.34L35.78-1.34L35.78-1.34Q35.26-2.43 35.10-3.97L35.10-3.97L35.10-3.97Q34.94-5.50 35.04-7.17L35.04-7.17L35.04-7.17Q35.14-8.83 35.42-10.40L35.42-10.40L35.42-10.40Q35.71-11.97 36.10-13.18ZM64.64-42.82L64.64-42.82L64.64-42.82Q64.90-44.10 65.02-45.28L65.02-45.28L65.02-45.28Q65.15-46.46 65.28-47.81L65.28-47.81L65.28-47.81Q65.28-47.94 65.34-48.10L65.34-48.10L65.34-48.10Q65.41-48.26 65.54-48.26L65.54-48.26L65.54-48.26Q65.60-48.26 65.79-47.94L65.79-47.94L65.79-47.94Q65.86-47.81 65.86-47.68L65.86-47.68L65.86-47.68Q66.05-47.04 66.14-46.53L66.14-46.53L66.14-46.53Q66.24-46.02 66.27-45.44L66.27-45.44L66.27-45.44Q66.30-44.86 66.27-44.13L66.27-44.13L66.27-44.13Q66.24-43.39 66.05-42.43L66.05-42.43L66.05-42.43Q65.92-41.66 65.63-40.58L65.63-40.58L65.63-40.58Q65.34-39.49 65.02-38.50L65.02-38.50L65.02-38.50Q64.70-37.50 64.42-36.83L64.42-36.83L64.42-36.83Q64.13-36.16 63.94-36.22L63.94-36.22L63.94-36.22Q63.81-36.22 63.81-36.58L63.81-36.58L63.81-36.58Q63.81-36.93 63.87-37.34L63.87-37.34L63.87-37.34Q63.94-37.76 64-38.21L64-38.21L64-38.21Q64.06-38.66 64.06-38.91L64.06-38.91L64.64-42.82ZM42.18-40.13L42.18-40.13L42.18-40.13Q41.92-41.22 41.57-42.24L41.57-42.24L41.57-42.24Q41.22-43.26 40.64-44.16L40.64-44.16L40.64-44.16Q40.38-44.54 40.51-44.61L40.51-44.61L40.51-44.61Q40.64-44.61 40.90-44.48L40.90-44.48L41.15-44.35L41.15-44.35Q41.98-43.58 42.59-42.82L42.59-42.82L42.59-42.82Q43.20-42.05 43.58-40.26L43.58-40.26L43.58-40.26Q43.78-39.55 43.84-38.50L43.84-38.50L43.84-38.50Q43.90-37.44 43.87-36.42L43.87-36.42L43.87-36.42Q43.84-35.39 43.71-34.69L43.71-34.69L43.71-34.69Q43.58-33.98 43.33-34.05L43.33-34.05L43.33-34.05Q43.20-34.05 43.14-34.37L43.14-34.37L43.14-34.37Q43.07-34.69 43.01-35.10L43.01-35.10L43.01-35.10Q42.94-35.52 42.88-35.90L42.88-35.90L42.88-35.90Q42.82-36.29 42.82-36.42L42.82-36.42L42.82-36.42Q42.69-37.44 42.56-38.34L42.56-38.34L42.56-38.34Q42.43-39.23 42.18-40.13ZM102.53-41.47L102.53-41.47L102.53-41.47Q102.53-40.32 101.98-39.04L101.98-39.04L101.98-39.04Q101.44-37.76 100.67-36.54L100.67-36.54L100.67-36.54Q99.90-35.33 98.94-34.34L98.94-34.34L98.94-34.34Q97.98-33.34 97.09-32.70L97.09-32.70L97.09-32.70Q94.66-30.91 91.74-29.28L91.74-29.28L91.74-29.28Q88.83-27.65 86.08-26.56L86.08-26.56L86.08-26.56Q85.95-26.50 85.50-26.34L85.50-26.34L85.50-26.34Q85.06-26.18 84.93-26.30L84.93-26.30L84.93-26.30Q84.80-26.43 85.12-26.78L85.12-26.78L85.12-26.78Q85.44-27.14 85.63-27.26L85.63-27.26L85.63-27.26Q86.08-27.71 86.82-28.35L86.82-28.35L86.82-28.35Q87.55-28.99 88.35-29.60L88.35-29.60L88.35-29.60Q89.15-30.21 89.95-30.78L89.95-30.78L89.95-30.78Q90.75-31.36 91.39-31.68L91.39-31.68L91.39-31.68Q91.84-31.94 93.41-33.12L93.41-33.12L93.41-33.12Q94.98-34.30 96.77-35.87L96.77-35.87L96.77-35.87Q98.56-37.44 100.13-39.04L100.13-39.04L100.13-39.04Q101.70-40.64 102.08-41.66L102.08-41.66L102.08-41.66Q102.34-42.11 102.46-41.98L102.46-41.98L102.46-41.98Q102.53-41.92 102.53-41.73L102.53-41.73L102.53-41.73Q102.53-41.54 102.53-41.47ZM74.62-17.73L74.62-17.73L74.62-17.73Q76.99-17.41 79.23-16.80L79.23-16.80L79.23-16.80Q81.47-16.19 83.39-14.53L83.39-14.53L83.39-14.53Q85.63-12.61 88-10.27L88-10.27L88-10.27Q90.37-7.94 92.35-5.70L92.35-5.70L92.35-5.70Q92.48-5.57 92.74-5.22L92.74-5.22L92.74-5.22Q92.99-4.86 92.86-4.67L92.86-4.67L92.86-4.67Q92.80-4.54 92.38-4.70L92.38-4.70L92.38-4.70Q91.97-4.86 91.84-4.99L91.84-4.99L91.84-4.99Q91.26-5.31 90.46-5.86L90.46-5.86L90.46-5.86Q89.66-6.40 88.83-7.04L88.83-7.04L88.83-7.04Q88-7.68 87.23-8.29L87.23-8.29L87.23-8.29Q86.46-8.90 85.95-9.41L85.95-9.41L85.95-9.41Q85.63-9.73 84.26-10.85L84.26-10.85L84.26-10.85Q82.88-11.97 81.02-13.22L81.02-13.22L81.02-13.22Q79.17-14.46 77.15-15.55L77.15-15.55L77.15-15.55Q75.14-16.64 73.54-17.02L73.54-17.02L73.54-17.02Q73.02-17.15 73.06-17.66L73.06-17.66L73.06-17.66Q73.09-18.18 73.15-18.56L73.15-18.56L73.15-18.56Q73.28-19.33 73.50-20.48L73.50-20.48L73.50-20.48Q73.73-21.63 73.95-22.85L73.95-22.85L73.95-22.85Q74.18-24.06 74.43-25.22L74.43-25.22L74.43-25.22Q74.69-26.37 74.94-27.20L74.94-27.20L74.94-27.20Q75.14-27.78 75.65-30.08L75.65-30.08L75.65-30.08Q76.16-32.38 76.67-35.20L76.67-35.20L76.67-35.20Q77.18-38.02 77.44-40.64L77.44-40.64L77.44-40.64Q77.70-43.26 77.38-44.48L77.38-44.48L77.38-44.48Q77.25-45.06 77.44-45.06L77.44-45.06L77.44-45.06Q77.57-45.06 77.63-44.90L77.63-44.90L77.63-44.90Q77.70-44.74 77.82-44.61L77.82-44.61L77.82-44.61Q78.53-43.52 78.91-41.98L78.91-41.98L78.91-41.98Q79.30-40.45 79.39-38.75L79.39-38.75L79.39-38.75Q79.49-37.06 79.33-35.39L79.33-35.39L79.33-35.39Q79.17-33.73 78.85-32.51L78.85-32.51L78.85-32.51Q78.14-29.82 77.25-27.17L77.25-27.17L77.25-27.17Q76.35-24.51 75.33-21.82L75.33-21.82L75.33-21.82Q76.03-22.85 76.67-23.78L76.67-23.78L76.67-23.78Q77.31-24.70 77.82-25.54L77.82-25.54L77.89-25.86L77.89-25.86Q78.53-28.93 79.46-32.06L79.46-32.06L79.46-32.06Q80.38-35.20 80.51-38.85L80.51-38.85L80.51-38.85Q80.64-39.17 80.70-39.17L80.70-39.17L80.70-39.17Q80.77-39.17 80.83-39.04L80.83-39.04L80.83-39.04Q80.90-38.91 80.96-38.78L80.96-38.78L80.96-38.78Q81.66-37.06 81.47-34.27L81.47-34.27L81.47-34.27Q81.28-31.49 80.70-28.48L80.70-28.48L80.70-28.48Q81.47-29.12 82.21-29.70L82.21-29.70L82.21-29.70Q82.94-30.27 83.84-30.85L83.84-30.85L83.84-30.85Q86.27-32.51 88.83-34.05L88.83-34.05L88.83-34.05Q91.39-35.58 93.79-37.18L93.79-37.18L93.79-37.18Q96.19-38.78 98.24-40.45L98.24-40.45L98.24-40.45Q100.29-42.11 101.76-44.10L101.76-44.10L101.76-44.10Q101.95-44.29 102.02-44.16L102.02-44.16L102.02-44.16Q102.08-44.16 102.05-44L102.05-44L102.05-44Q102.02-43.84 102.02-43.78L102.02-43.78L102.02-43.78Q101.06-41.15 99.10-39.14L99.10-39.14L99.10-39.14Q97.15-37.12 94.69-35.39L94.69-35.39L94.69-35.39Q92.22-33.66 89.54-32.13L89.54-32.13L89.54-32.13Q86.85-30.59 84.42-28.86L84.42-28.86L84.42-28.86Q81.41-26.82 78.78-24L78.78-24L78.78-24Q76.16-21.18 74.62-17.73ZM77.70-18.11L77.70-18.11L77.70-18.11Q77.38-18.11 76.83-18.14L76.83-18.14L76.83-18.14Q76.29-18.18 75.84-18.11L75.84-18.11L75.84-18.11Q76.10-18.62 76.45-19.14L76.45-19.14L76.45-19.14Q76.80-19.65 77.12-20.16L77.12-20.16L77.12-20.16Q77.50-20.67 78.05-21.28L78.05-21.28L78.05-21.28Q78.59-21.89 79.14-22.37L79.14-22.37L79.14-22.37Q79.68-22.85 80.10-23.07L80.10-23.07L80.10-23.07Q80.51-23.30 80.64-23.04L80.64-23.04L80.64-23.04Q80.70-22.98 80.54-22.72L80.54-22.72L80.54-22.72Q80.38-22.46 80.13-22.11L80.13-22.11L80.13-22.11Q79.87-21.76 79.65-21.47L79.65-21.47L79.65-21.47Q79.42-21.18 79.36-21.06L79.36-21.06L79.36-21.06Q78.66-20.16 78.34-19.49L78.34-19.49L78.34-19.49Q78.02-18.82 77.70-18.11ZM102.21-0.77L102.21-0.77L102.21-0.77Q102.08-0.64 101.86-0.74L101.86-0.74L101.86-0.74Q101.63-0.83 101.38-0.96L101.38-0.96L101.38-0.96Q99.52-1.79 97.89-3.01L97.89-3.01L97.89-3.01Q96.26-4.22 94.72-5.63L94.72-5.63L94.72-5.63Q93.18-7.04 91.68-8.54L91.68-8.54L91.68-8.54Q90.18-10.05 88.64-11.52L88.64-11.52L88.64-11.52Q87.55-12.54 86.34-13.63L86.34-13.63L86.34-13.63Q85.12-14.72 83.84-15.65L83.84-15.65L83.84-15.65Q82.56-16.58 81.18-17.25L81.18-17.25L81.18-17.25Q79.81-17.92 78.40-18.11L78.40-18.11L78.40-18.11Q79.23-19.33 81.09-20.86L81.09-20.86L81.09-20.86Q82.94-22.40 85.12-23.87L85.12-23.87L85.12-23.87Q87.30-25.34 89.41-26.69L89.41-26.69L89.41-26.69Q91.52-28.03 92.86-28.86L92.86-28.86L92.86-28.86Q95.10-30.27 97.38-31.87L97.38-31.87L97.38-31.87Q99.65-33.47 101.57-35.78L101.57-35.78L101.57-35.78Q101.76-36.03 101.95-35.97L101.95-35.97L101.95-35.97Q101.95-35.84 101.89-35.74L101.89-35.74L101.89-35.74Q101.82-35.65 101.82-35.52L101.82-35.52L101.82-35.52Q101.50-33.92 99.94-32.16L99.94-32.16L99.94-32.16Q98.37-30.40 96.38-28.80L96.38-28.80L96.38-28.80Q94.40-27.20 92.35-25.82L92.35-25.82L92.35-25.82Q90.30-24.45 89.09-23.62L89.09-23.62L89.09-23.62Q87.94-22.85 86.69-22.14L86.69-22.14L86.69-22.14Q85.44-21.44 84.16-20.77L84.16-20.77L84.16-20.77Q82.88-20.10 81.70-19.55L81.70-19.55L81.70-19.55Q80.51-19.01 79.49-18.56L79.49-18.56L79.49-18.56Q81.15-18.56 83.30-17.54L83.30-17.54L83.30-17.54Q85.44-16.51 87.55-15.07L87.55-15.07L87.55-15.07Q89.66-13.63 91.46-12.06L91.46-12.06L91.46-12.06Q93.25-10.50 94.21-9.47L94.21-9.47L94.21-9.47Q96.26-7.23 98.27-5.12L98.27-5.12L98.27-5.12Q100.29-3.01 101.82-1.47L101.82-1.47L101.82-1.47Q102.34-0.96 102.21-0.77ZM75.97-46.21L75.97-46.21L75.97-46.21Q76.86-43.14 76.54-39.84L76.54-39.84L76.54-39.84Q76.22-36.54 75.30-33.09L75.30-33.09L75.30-33.09Q74.37-29.63 73.22-26.05L73.22-26.05L73.22-26.05Q72.06-22.46 71.23-18.94L71.23-18.94L71.23-18.94Q70.72-16.70 70.43-14.27L70.43-14.27L70.43-14.27Q70.14-11.84 70.24-9.38L70.24-9.38L70.24-9.38Q70.34-6.91 70.82-4.58L70.82-4.58L70.82-4.58Q71.30-2.24 72.38-0.26L72.38-0.26L72.38-0.26Q72.64 0.26 72.58 0.26L72.58 0.26L72.58 0.26Q72.45 0.26 72.32 0.13L72.32 0.13L72.32 0.13Q72.19 0 72.13 0L72.13 0L72.13 0Q70.34-2.11 69.50-4.58L69.50-4.58L69.50-4.58Q68.67-7.04 68.48-9.66L68.48-9.66L68.48-9.66Q68.29-12.29 68.64-14.98L68.64-14.98L68.64-14.98Q68.99-17.66 69.57-20.22L69.57-20.22L69.57-20.22Q70.40-23.74 71.49-27.23L71.49-27.23L71.49-27.23Q72.58-30.72 73.50-34.02L73.50-34.02L73.50-34.02Q74.43-37.31 75.07-40.38L75.07-40.38L75.07-40.38Q75.71-43.46 75.65-46.27L75.65-46.27L75.65-46.27Q75.65-46.66 75.71-46.66L75.71-46.66L75.71-46.66Q75.78-46.72 75.87-46.50L75.87-46.50L75.87-46.50Q75.97-46.27 75.97-46.21ZM106.24 1.28L106.24 1.28L106.24 1.28Q106.24 1.41 106.11 1.47L106.11 1.47L106.11 1.47Q105.98 1.54 105.86 1.60L105.86 1.60L105.86 1.60Q103.42 2.50 101.15 2.40L101.15 2.40L101.15 2.40Q98.88 2.30 96.74 1.63L96.74 1.63L96.74 1.63Q94.59 0.96 92.64-0.13L92.64-0.13L92.64-0.13Q90.69-1.22 88.96-2.30L88.96-2.30L88.96-2.30Q87.23-3.39 85.63-4.80L85.63-4.80L85.63-4.80Q84.03-6.21 82.50-7.68L82.50-7.68L82.50-7.68Q80.96-9.15 79.46-10.56L79.46-10.56L79.46-10.56Q77.95-11.97 76.48-13.06L76.48-13.06L74.50-6.40L74.50-6.40Q74.37-6.08 74.27-5.82L74.27-5.82L74.27-5.82Q74.18-5.57 74.05-5.63L74.05-5.63L74.05-5.63Q73.92-5.70 73.89-5.98L73.89-5.98L73.89-5.98Q73.86-6.27 73.86-6.59L73.86-6.59L73.86-6.59Q73.92-8.45 74.18-10.37L74.18-10.37L74.18-10.37Q74.43-12.29 74.82-14.21L74.82-14.21L74.82-14.21Q74.43-14.46 73.86-14.78L73.86-14.78L73.86-14.78Q73.28-15.10 72.77-15.42L72.77-15.42L72.77-15.42Q72.64-15.49 72.45-15.65L72.45-15.65L72.45-15.65Q72.26-15.81 72.32-15.94L72.32-15.94L72.32-15.94Q72.32-16 72.64-16L72.64-16L72.64-16Q74.94-15.81 77.15-14.50L77.15-14.50L77.15-14.50Q79.36-13.18 81.57-11.36L81.57-11.36L81.57-11.36Q83.78-9.54 86.02-7.42L86.02-7.42L86.02-7.42Q88.26-5.31 90.69-3.39L90.69-3.39L90.69-3.39Q93.76-1.02 97.73 0.35L97.73 0.35L97.73 0.35Q101.70 1.73 105.79 1.22L105.79 1.22L105.79 1.22Q106.24 1.09 106.24 1.28ZM74.37 0.26L74.37 0.26L74.37 0.26Q74.24 0.26 73.98 0.13L73.98 0.13L73.98 0.13Q73.86 0.06 73.79-0.06L73.79-0.06L73.79-0.06Q72.96-1.02 72.48-1.86L72.48-1.86L72.48-1.86Q72-2.69 71.68-4.54L71.68-4.54L71.68-4.54Q71.55-5.25 71.52-6.34L71.52-6.34L71.52-6.34Q71.49-7.42 71.55-8.45L71.55-8.45L71.55-8.45Q71.62-9.47 71.78-10.18L71.78-10.18L71.78-10.18Q71.94-10.88 72.19-10.88L72.19-10.88L72.19-10.88Q72.26-10.88 72.35-10.56L72.35-10.56L72.35-10.56Q72.45-10.24 72.51-9.82L72.51-9.82L72.51-9.82Q72.58-9.41 72.61-8.99L72.61-8.99L72.61-8.99Q72.64-8.58 72.64-8.45L72.64-8.45L72.64-8.45Q72.77-7.04 72.86-6.14L72.86-6.14L72.86-6.14Q72.96-5.25 73.09-4.54L73.09-4.54L73.09-4.54Q73.41-2.50 74.37-0.26L74.37-0.26L74.37-0.26Q74.43-0.13 74.46 0.06L74.46 0.06L74.46 0.06Q74.50 0.26 74.37 0.26ZM97.54-1.02L97.54-1.02L97.54-1.02Q97.98-0.96 98.66-0.80L98.66-0.80L98.66-0.80Q99.33-0.64 99.71-0.51L99.71-0.51L99.71-0.51Q101.38-0.06 102.50 0.16L102.50 0.16L102.50 0.16Q103.62 0.38 105.15 0.45L105.15 0.45L105.15 0.45Q105.28 0.45 105.50 0.45L105.50 0.45L105.50 0.45Q105.73 0.45 105.73 0.58L105.73 0.58L105.73 0.58Q105.73 0.83 105.09 0.90L105.09 0.90L105.09 0.90Q104.32 1.02 103.74 1.02L103.74 1.02L103.74 1.02Q103.17 1.02 102.27 0.96L102.27 0.96L102.27 0.96Q101.76 0.90 101.06 0.77L101.06 0.77L101.06 0.77Q100.35 0.64 99.65 0.42L99.65 0.42L99.65 0.42Q98.94 0.19 98.34-0.03L98.34-0.03L98.34-0.03Q97.73-0.26 97.47-0.51L97.47-0.51L97.47-0.51Q97.22-0.77 97.28-0.96L97.28-0.96L97.28-0.96Q97.28-1.02 97.54-1.02Z" fill="url(#editing-shiny-gradient2)"></path></g></g><style>text {
  font-size: 64px;
  font-family: Arial Black;
  dominant-baseline: central;
  text-anchor: middle;
}</style></svg>